<?xml version="1.0" encoding="utf-8"?>
<!-- Generator: Adobe Illustrator 21.1.0, SVG Export Plug-In . SVG Version: 6.00 Build 0)  -->
<svg version="1.1" id="Layer_1" xmlns="http://www.w3.org/2000/svg" xmlns:xlink="http://www.w3.org/1999/xlink" x="0px" y="0px"
	 viewBox="0 0 80 66" style="enable-background:new 0 0 80 66;" xml:space="preserve">
<style type="text/css">
	.st0{fill:#E95557;}
</style>
<title>icon-serv</title>
<g>
	<path class="st0" d="M40.6,63.9c-0.6,0-1.1,0-1.7,0c-10.4-0.4-17.4-0.3-22.4-0.2c-4.3,0.1-7.9-3.2-8.1-7.4l0-6.1
		c0-1.3,0.8-2.5,2-3.1c1.9-0.8,6.1-2.5,7.2-3.1c1.7-1,8.8-0.3,14.6,1.5c3.1,0.9,6.4,1.4,9.8,1.3c1.9-0.1,3.9,0.1,6,0.5
		c0.2,0.1,0.5,0.2,0.6,0.4c0,0,0.1,0.1,0.1,0.1c0.7,0.4,2.5,1.6,1.8,4.5c-0.1,0.3-0.1,0.5-0.2,0.7c0.1,0,0.3,0,0.4,0
		c5.5-1.3,10.8-3.6,15.9-6.8c1.5-0.9,3.5-0.5,4.5,1c0.1,0.1,0.1,0.2,0.2,0.4c0,0.1,0.1,0.1,0.1,0.2c0.7,1.4,0.2,3.2-1.1,4.1
		c-3.4,2.5-7.3,5-12.4,7.7C52.4,62.4,46.5,63.9,40.6,63.9z M24.3,61.6c4,0,8.8,0.1,14.7,0.3c6.1,0.3,12.3-1.1,17.8-4.1
		c5-2.7,8.9-5.2,12.2-7.6c0.5-0.3,0.7-1.1,0.4-1.7c0,0,0,0,0,0c-0.1-0.1-0.1-0.2-0.2-0.3c-0.4-0.4-1.1-0.6-1.7-0.3
		c-5.3,3.3-10.8,5.6-16.5,7c0,0-0.1,0-0.1,0c-6.5,0.8-12.9,1.1-19.1,0.8c-0.5,0-1-0.5-1-1s0.4-1,0.9-1L47.4,53c0.5,0,1-0.5,1.1-1.1
		c0,0,0,0,0,0c0.4-1.5-0.3-2-1-2.4c-0.1-0.1-0.3-0.2-0.4-0.3c-1.8-0.4-3.6-0.5-5.2-0.4c-3.6,0.1-7.1-0.3-10.4-1.3
		c-6.2-1.9-12.2-2.1-13-1.7c-1.1,0.6-4.1,1.9-7.3,3.2c-0.4,0.2-0.8,0.8-0.8,1.3v6c0.2,3.1,2.8,5.6,6.1,5.5
		C18.7,61.7,21.2,61.6,24.3,61.6z M48.7,48.1C48.7,48.1,48.7,48.1,48.7,48.1C48.7,48.1,48.7,48.1,48.7,48.1z M48.7,48.1L48.7,48.1
		L48.7,48.1z"/>
</g>
<g>
	<path class="st0" d="M46.7,30.5c-4.2,0-7.6-3.4-7.6-7.6s3.4-7.6,7.6-7.6s7.6,3.4,7.6,7.6S50.9,30.5,46.7,30.5z M46.7,17.3
		c-3.1,0-5.6,2.5-5.6,5.6s2.5,5.6,5.6,5.6s5.6-2.5,5.6-5.6S49.8,17.3,46.7,17.3z"/>
</g>
<g>
	<path class="st0" d="M46.6,44c-1.9,0-2.9-2.2-3.9-4.3c-0.5-1.1-1.3-2.7-1.9-2.9c-0.6-0.3-2.3,0.3-3.5,0.8c-2.1,0.8-4.3,1.5-5.6,0.2
		c-1.3-1.3-0.5-3.5,0.2-5.6c0.4-1.2,1-2.9,0.8-3.5c-0.2-0.6-1.8-1.3-2.9-1.9c-2.1-1-4.3-2-4.3-3.9c0-1.9,2.2-2.9,4.3-3.9
		c1.1-0.5,2.7-1.3,2.9-1.9c0.3-0.6-0.3-2.3-0.8-3.5c-0.8-2.1-1.5-4.3-0.2-5.6c1.3-1.3,3.5-0.5,5.6,0.2c1.2,0.4,2.9,1,3.5,0.8
		c0.6-0.2,1.3-1.8,1.9-2.9c1-2.1,2-4.3,3.9-4.3c1.9,0,2.9,2.2,3.9,4.3c0.5,1.1,1.3,2.7,1.9,2.9c0.6,0.3,2.3-0.3,3.5-0.8
		C58,7.5,60.2,6.7,61.5,8c1.3,1.3,0.5,3.5-0.2,5.6c-0.4,1.2-1,2.9-0.8,3.5c0.3,0.6,1.8,1.3,2.9,1.8c2.1,1,4.3,2.1,4.3,3.9
		s-2.2,2.9-4.3,3.9c-1.1,0.5-2.7,1.3-2.9,1.9c-0.3,0.6,0.3,2.3,0.8,3.5c0.8,2.1,1.5,4.3,0.2,5.6c-1.3,1.3-3.5,0.5-5.6-0.2
		c-1.2-0.4-2.9-1-3.5-0.8c-0.6,0.2-1.3,1.8-1.9,2.9C49.5,41.8,48.5,44,46.6,44z M40.4,34.8c0.4,0,0.8,0.1,1.2,0.2
		c1.3,0.6,2,2.2,2.9,3.9C45,40,46,42,46.6,42c0.6,0,1.6-2,2.1-3.1c0.8-1.7,1.6-3.4,2.9-3.9c1.3-0.6,3.1,0.1,4.9,0.7
		c1.2,0.4,3.1,1.1,3.5,0.7c0.4-0.4-0.3-2.4-0.7-3.5c-0.7-1.9-1.3-3.6-0.7-5c0.6-1.3,2.2-2,3.9-2.9c1.2-0.6,3.1-1.5,3.1-2.1
		c0-0.6-2-1.6-3.1-2.1c-1.7-0.8-3.3-1.6-3.9-2.8c-0.6-1.4,0-3.1,0.7-5c0.4-1.2,1.1-3.1,0.7-3.5c-0.4-0.4-2.4,0.3-3.5,0.7
		c-1.9,0.7-3.6,1.3-5,0.7c-1.3-0.6-2-2.2-2.9-3.9c-0.6-1.2-1.5-3.1-2.1-3.1c-0.6,0-1.6,2-2.1,3.1c-0.8,1.7-1.6,3.4-2.9,3.9
		c-1.3,0.6-3.1-0.1-4.9-0.7c-1.2-0.4-3.1-1.1-3.5-0.7c-0.4,0.4,0.3,2.4,0.7,3.5c0.7,1.9,1.3,3.6,0.7,5c-0.6,1.3-2.2,2-3.9,2.9
		c-1.2,0.6-3.1,1.5-3.1,2.1c0,0.6,2,1.6,3.1,2.1c1.7,0.8,3.4,1.6,3.9,2.9c0.6,1.3-0.1,3.1-0.7,4.9c-0.4,1.2-1.1,3.1-0.7,3.5
		c0.4,0.4,2.4-0.3,3.5-0.7C38,35.2,39.3,34.8,40.4,34.8z"/>
</g>
</svg>
