<?xml version="1.0" encoding="utf-8"?>
<!-- Generator: Adobe Illustrator 21.1.0, SVG Export Plug-In . SVG Version: 6.00 Build 0)  -->
<svg version="1.1" id="Layer_1" xmlns="http://www.w3.org/2000/svg" xmlns:xlink="http://www.w3.org/1999/xlink" x="0px" y="0px"
	 viewBox="0 0 1920.4 1092" style="enable-background:new 0 0 1920.4 1092;" xml:space="preserve">
<style type="text/css">
	.st0{fill:url(#SVGID_1_);}
	.st1{fill:#F2F2F1;}
</style>
<title>bg2-index</title>
<linearGradient id="SVGID_1_" gradientUnits="userSpaceOnUse" x1="7.747000e-02" y1="538" x2="1920.39" y2="538" gradientTransform="matrix(1 0 0 -1 0 1084)">
	<stop  offset="0" style="stop-color:#EDECEC;stop-opacity:0.1"/>
	<stop  offset="0.1073" style="stop-color:#EEEEED;stop-opacity:0.2719"/>
	<stop  offset="0.2657" style="stop-color:#F0F0EF;stop-opacity:0.5021"/>
	<stop  offset="0.3837" style="stop-color:#F2F1F1;stop-opacity:0.6457"/>
	<stop  offset="0.4472" style="stop-color:#F2F2F1;stop-opacity:0.7"/>
	<stop  offset="0.526" style="stop-color:#F2F2F1;stop-opacity:0.6792"/>
	<stop  offset="0.6206" style="stop-color:#F2F2F1;stop-opacity:0.6189"/>
	<stop  offset="0.7232" style="stop-color:#F1F1F0;stop-opacity:0.519"/>
	<stop  offset="0.8315" style="stop-color:#F1F0F0;stop-opacity:0.3795"/>
	<stop  offset="0.9432" style="stop-color:#F0F0EF;stop-opacity:0.2023"/>
	<stop  offset="1" style="stop-color:#F0EFEF;stop-opacity:0.1"/>
</linearGradient>
<rect x="0.1" class="st0" width="1920.3" height="1092"/>
<path class="st1" d="M59.4,53.9l-9.4,9.4c-1.5,1.5-4,1.5-5.5,0l0,0c-1.5-1.5-1.5-4,0-5.5l9.4-9.4c1.5-1.5,4-1.5,5.5,0l0,0
	C60.9,49.8,60.9,52.3,59.4,53.9z"/>
<path class="st1" d="M151.6,53.9l-9.4,9.4c-1.5,1.5-4,1.5-5.5,0v0c-1.5-1.5-1.5-4,0-5.5l9.4-9.4c1.5-1.5,4-1.5,5.5,0v0
	C153.1,49.8,153.1,52.3,151.6,53.9z"/>
<path class="st1" d="M243.9,53.9l-9.4,9.4c-1.5,1.5-4,1.5-5.5,0v0c-1.5-1.5-1.5-4,0-5.5l9.4-9.4c1.5-1.5,4-1.5,5.5,0l0,0
	C245.4,49.8,245.4,52.3,243.9,53.9z"/>
<path class="st1" d="M59.4,145.5l-9.4,9.4c-1.5,1.5-4,1.5-5.5,0l0,0c-1.5-1.5-1.5-4,0-5.5l9.4-9.4c1.5-1.5,4-1.5,5.5,0l0,0
	C60.9,141.4,60.9,143.9,59.4,145.5z"/>
<path class="st1" d="M151.6,145.5l-9.4,9.4c-1.5,1.5-4,1.5-5.5,0l0,0c-1.5-1.5-1.5-4,0-5.5l9.4-9.4c1.5-1.5,4-1.5,5.5,0l0,0
	C153.1,141.4,153.1,143.9,151.6,145.5z"/>
<path class="st1" d="M243.9,145.5l-9.4,9.4c-1.5,1.5-4,1.5-5.5,0l0,0c-1.5-1.5-1.5-4,0-5.5l9.4-9.4c1.5-1.5,4-1.5,5.5,0l0,0
	C245.4,141.4,245.4,143.9,243.9,145.5z"/>
<path class="st1" d="M59.4,237l-9.4,9.4c-1.5,1.5-4,1.5-5.5,0l0,0c-1.5-1.5-1.5-4,0-5.5l9.4-9.4c1.5-1.5,4-1.5,5.5,0l0,0
	C60.9,233,60.9,235.5,59.4,237z"/>
<path class="st1" d="M151.6,237l-9.4,9.4c-1.5,1.5-4,1.5-5.5,0l0,0c-1.5-1.5-1.5-4,0-5.5l9.4-9.4c1.5-1.5,4-1.5,5.5,0l0,0
	C153.1,233,153.1,235.5,151.6,237z"/>
<path class="st1" d="M243.9,237l-9.4,9.4c-1.5,1.5-4,1.5-5.5,0l0,0c-1.5-1.5-1.5-4,0-5.5l9.4-9.4c1.5-1.5,4-1.5,5.5,0l0,0
	C245.4,233,245.4,235.5,243.9,237z"/>
<path class="st1" d="M59.4,328.6l-9.4,9.4c-1.5,1.5-4,1.5-5.5,0l0,0c-1.5-1.5-1.5-4,0-5.5l9.4-9.4c1.5-1.5,4-1.5,5.5,0l0,0
	C60.9,324.6,60.9,327.1,59.4,328.6z"/>
<path class="st1" d="M151.6,328.6l-9.4,9.4c-1.5,1.5-4,1.5-5.5,0l0,0c-1.5-1.5-1.5-4,0-5.5l9.4-9.4c1.5-1.5,4-1.5,5.5,0h0
	C153.1,324.6,153.1,327.1,151.6,328.6z"/>
<path class="st1" d="M243.9,328.6l-9.4,9.4c-1.5,1.5-4,1.5-5.5,0l0,0c-1.5-1.5-1.5-4,0-5.5l9.4-9.4c1.5-1.5,4-1.5,5.5,0l0,0
	C245.4,324.6,245.4,327.1,243.9,328.6z"/>
<path class="st1" d="M59.4,420.2l-9.4,9.4c-1.5,1.5-4,1.5-5.5,0l0,0c-1.5-1.5-1.5-4,0-5.5l9.4-9.4c1.5-1.5,4-1.5,5.5,0l0,0
	C60.9,416.2,60.9,418.7,59.4,420.2z"/>
<path class="st1" d="M151.6,420.2l-9.4,9.4c-1.5,1.5-4,1.5-5.5,0h0c-1.5-1.5-1.5-4,0-5.5l9.4-9.4c1.5-1.5,4-1.5,5.5,0l0,0
	C153.1,416.2,153.1,418.7,151.6,420.2z"/>
<path class="st1" d="M243.9,420.2l-9.4,9.4c-1.5,1.5-4,1.5-5.5,0l0,0c-1.5-1.5-1.5-4,0-5.5l9.4-9.4c1.5-1.5,4-1.5,5.5,0l0,0
	C245.4,416.2,245.4,418.7,243.9,420.2z"/>
<path class="st1" d="M59.4,511.8l-9.4,9.4c-1.5,1.5-4,1.5-5.5,0l0,0c-1.5-1.5-1.5-4,0-5.5l9.4-9.4c1.5-1.5,4-1.5,5.5,0l0,0
	C60.9,507.8,60.9,510.3,59.4,511.8z"/>
<path class="st1" d="M151.6,511.8l-9.4,9.4c-1.5,1.5-4,1.5-5.5,0l0,0c-1.5-1.5-1.5-4,0-5.5l9.4-9.4c1.5-1.5,4-1.5,5.5,0l0,0
	C153.1,507.8,153.1,510.3,151.6,511.8z"/>
<path class="st1" d="M243.9,511.8l-9.4,9.4c-1.5,1.5-4,1.5-5.5,0l0,0c-1.5-1.5-1.5-4,0-5.5l9.4-9.4c1.5-1.5,4-1.5,5.5,0l0,0
	C245.4,507.8,245.4,510.3,243.9,511.8z"/>
<path class="st1" d="M59.4,603.4l-9.4,9.4c-1.5,1.5-4,1.5-5.5,0l0,0c-1.5-1.5-1.5-4,0-5.5l9.4-9.4c1.5-1.5,4-1.5,5.5,0l0,0
	C60.9,599.4,60.9,601.9,59.4,603.4z"/>
<path class="st1" d="M151.6,603.4l-9.4,9.4c-1.5,1.5-4,1.5-5.5,0l0,0c-1.5-1.5-1.5-4,0-5.5l9.4-9.4c1.5-1.5,4-1.5,5.5,0l0,0
	C153.1,599.4,153.1,601.9,151.6,603.4z"/>
<path class="st1" d="M348.2,53.9l-9.4,9.4c-1.5,1.5-4,1.5-5.5,0v0c-1.5-1.5-1.5-4,0-5.5l9.4-9.4c1.5-1.5,4-1.5,5.5,0v0
	C349.7,49.8,349.7,52.3,348.2,53.9z"/>
<path class="st1" d="M440.4,53.9l-9.4,9.4c-1.5,1.5-4,1.5-5.5,0v0c-1.5-1.5-1.5-4,0-5.5l9.4-9.4c1.5-1.5,4-1.5,5.5,0v0
	C442,49.8,442,52.3,440.4,53.9z"/>
<path class="st1" d="M532.7,53.9l-9.4,9.4c-1.5,1.5-4,1.5-5.5,0v0c-1.5-1.5-1.5-4,0-5.5l9.4-9.4c1.5-1.5,4-1.5,5.5,0v0
	C534.2,49.8,534.2,52.3,532.7,53.9z"/>
<path class="st1" d="M348.2,145.5l-9.4,9.4c-1.5,1.5-4,1.5-5.5,0l0,0c-1.5-1.5-1.5-4,0-5.5l9.4-9.4c1.5-1.5,4-1.5,5.5,0l0,0
	C349.7,141.4,349.7,143.9,348.2,145.5z"/>
<path class="st1" d="M440.4,145.5l-9.4,9.4c-1.5,1.5-4,1.5-5.5,0l0,0c-1.5-1.5-1.5-4,0-5.5l9.4-9.4c1.5-1.5,4-1.5,5.5,0l0,0
	C442,141.4,442,143.9,440.4,145.5z"/>
<path class="st1" d="M532.7,145.5l-9.4,9.4c-1.5,1.5-4,1.5-5.5,0l0,0c-1.5-1.5-1.5-4,0-5.5l9.4-9.4c1.5-1.5,4-1.5,5.5,0l0,0
	C534.2,141.4,534.2,143.9,532.7,145.5z"/>
<path class="st1" d="M348.2,237l-9.4,9.4c-1.5,1.5-4,1.5-5.5,0l0,0c-1.5-1.5-1.5-4,0-5.5l9.4-9.4c1.5-1.5,4-1.5,5.5,0l0,0
	C349.7,233,349.7,235.5,348.2,237z"/>
<path class="st1" d="M440.4,237l-9.4,9.4c-1.5,1.5-4,1.5-5.5,0l0,0c-1.5-1.5-1.5-4,0-5.5l9.4-9.4c1.5-1.5,4-1.5,5.5,0l0,0
	C442,233,442,235.5,440.4,237z"/>
<path class="st1" d="M532.7,237l-9.4,9.4c-1.5,1.5-4,1.5-5.5,0l0,0c-1.5-1.5-1.5-4,0-5.5l9.4-9.4c1.5-1.5,4-1.5,5.5,0l0,0
	C534.2,233,534.2,235.5,532.7,237z"/>
<path class="st1" d="M348.2,328.6l-9.4,9.4c-1.5,1.5-4,1.5-5.5,0l0,0c-1.5-1.5-1.5-4,0-5.5l9.4-9.4c1.5-1.5,4-1.5,5.5,0l0,0
	C349.7,324.6,349.7,327.1,348.2,328.6z"/>
<path class="st1" d="M440.4,328.6l-9.4,9.4c-1.5,1.5-4,1.5-5.5,0l0,0c-1.5-1.5-1.5-4,0-5.5l9.4-9.4c1.5-1.5,4-1.5,5.5,0l0,0
	C442,324.6,442,327.1,440.4,328.6z"/>
<path class="st1" d="M532.7,328.6l-9.4,9.4c-1.5,1.5-4,1.5-5.5,0v0c-1.5-1.5-1.5-4,0-5.5l9.4-9.4c1.5-1.5,4-1.5,5.5,0l0,0
	C534.2,324.6,534.2,327.1,532.7,328.6z"/>
<path class="st1" d="M348.2,420.2l-9.4,9.4c-1.5,1.5-4,1.5-5.5,0v0c-1.5-1.5-1.5-4,0-5.5l9.4-9.4c1.5-1.5,4-1.5,5.5,0h0
	C349.7,416.2,349.7,418.7,348.2,420.2z"/>
<path class="st1" d="M440.4,420.2l-9.4,9.4c-1.5,1.5-4,1.5-5.5,0v0c-1.5-1.5-1.5-4,0-5.5l9.4-9.4c1.5-1.5,4-1.5,5.5,0h0
	C442,416.2,442,418.7,440.4,420.2z"/>
<path class="st1" d="M532.7,420.2l-9.4,9.4c-1.5,1.5-4,1.5-5.5,0l0,0c-1.5-1.5-1.5-4,0-5.5l9.4-9.4c1.5-1.5,4-1.5,5.5,0v0
	C534.2,416.2,534.2,418.7,532.7,420.2z"/>
<path class="st1" d="M348.2,511.8l-9.4,9.4c-1.5,1.5-4,1.5-5.5,0l0,0c-1.5-1.5-1.5-4,0-5.5l9.4-9.4c1.5-1.5,4-1.5,5.5,0l0,0
	C349.7,507.8,349.7,510.3,348.2,511.8z"/>
<path class="st1" d="M440.4,511.8l-9.4,9.4c-1.5,1.5-4,1.5-5.5,0l0,0c-1.5-1.5-1.5-4,0-5.5l9.4-9.4c1.5-1.5,4-1.5,5.5,0l0,0
	C442,507.8,442,510.3,440.4,511.8z"/>
<path class="st1" d="M532.7,511.8l-9.4,9.4c-1.5,1.5-4,1.5-5.5,0l0,0c-1.5-1.5-1.5-4,0-5.5l9.4-9.4c1.5-1.5,4-1.5,5.5,0l0,0
	C534.2,507.8,534.2,510.3,532.7,511.8z"/>
<path class="st1" d="M348.2,603.4l-9.4,9.4c-1.5,1.5-4,1.5-5.5,0l0,0c-1.5-1.5-1.5-4,0-5.5l9.4-9.4c1.5-1.5,4-1.5,5.5,0l0,0
	C349.7,599.4,349.7,601.9,348.2,603.4z"/>
<path class="st1" d="M440.4,603.4l-9.4,9.4c-1.5,1.5-4,1.5-5.5,0l0,0c-1.5-1.5-1.5-4,0-5.5l9.4-9.4c1.5-1.5,4-1.5,5.5,0l0,0
	C442,599.4,442,601.9,440.4,603.4z"/>
<path class="st1" d="M532.7,603.4l-9.4,9.4c-1.5,1.5-4,1.5-5.5,0l0,0c-1.5-1.5-1.5-4,0-5.5l9.4-9.4c1.5-1.5,4-1.5,5.5,0l0,0
	C534.2,599.4,534.2,601.9,532.7,603.4z"/>
<path class="st1" d="M637,53.9l-9.4,9.4c-1.5,1.5-4,1.5-5.5,0c0,0,0,0,0,0l0,0c-1.5-1.5-1.5-4,0-5.5l0,0l9.4-9.4
	c1.5-1.5,4-1.5,5.5,0c0,0,0,0,0,0l0,0C638.5,49.8,638.5,52.3,637,53.9L637,53.9z"/>
<path class="st1" d="M729.2,53.9l-9.4,9.4c-1.5,1.5-4,1.5-5.5,0v0c-1.5-1.5-1.5-4,0-5.5l9.4-9.4c1.5-1.5,4-1.5,5.5,0v0
	C730.8,49.8,730.8,52.3,729.2,53.9z"/>
<path class="st1" d="M821.5,53.9l-9.4,9.4c-1.5,1.5-4,1.5-5.5,0v0l0,0c-1.5-1.5-1.5-4,0-5.5l0,0l9.4-9.4c1.5-1.5,4-1.5,5.5,0
	c0,0,0,0,0,0l0,0C823,49.8,823,52.3,821.5,53.9C821.5,53.9,821.5,53.9,821.5,53.9z"/>
<path class="st1" d="M637,145.5l-9.4,9.4c-1.5,1.5-4,1.5-5.5,0l0,0l0,0c-1.5-1.5-1.5-4,0-5.5l0,0l9.4-9.4c1.5-1.5,4-1.5,5.5,0
	c0,0,0,0,0,0l0,0C638.5,141.4,638.5,143.9,637,145.5L637,145.5z"/>
<path class="st1" d="M729.2,145.5l-9.4,9.4c-1.5,1.5-4,1.5-5.5,0l0,0c-1.5-1.5-1.5-4,0-5.5l9.4-9.4c1.5-1.5,4-1.5,5.5,0l0,0
	C730.8,141.4,730.8,143.9,729.2,145.5z"/>
<path class="st1" d="M821.5,145.5l-9.4,9.4c-1.5,1.5-4,1.5-5.5,0h0l0,0c-1.5-1.5-1.5-4,0-5.5l0,0l9.4-9.4c1.5-1.5,4-1.5,5.5,0l0,0
	l0,0C823,141.4,823,143.9,821.5,145.5L821.5,145.5z"/>
<path class="st1" d="M637,237l-9.4,9.4c-1.5,1.5-4,1.5-5.5,0v0l0,0c-1.5-1.5-1.5-4,0-5.5l0,0l9.4-9.4c1.5-1.5,4-1.5,5.5,0
	c0,0,0,0,0,0l0,0C638.5,233,638.5,235.5,637,237L637,237z"/>
<path class="st1" d="M729.2,237l-9.4,9.4c-1.5,1.5-4,1.5-5.5,0l0,0c-1.5-1.5-1.5-4,0-5.5l9.4-9.4c1.5-1.5,4-1.5,5.5,0l0,0
	C730.8,233,730.8,235.5,729.2,237z"/>
<path class="st1" d="M821.5,237l-9.4,9.4c-1.5,1.5-4,1.5-5.5,0v0l0,0c-1.5-1.5-1.5-4,0-5.5l0,0l9.4-9.4c1.5-1.5,4-1.5,5.5,0v0l0,0
	C823,233,823,235.5,821.5,237L821.5,237z"/>
<path class="st1" d="M637,328.6l-9.4,9.4c-1.5,1.5-4,1.5-5.5,0l0,0l0,0c-1.5-1.5-1.5-4,0-5.5l0,0l9.4-9.4c1.5-1.5,4-1.5,5.5,0l0,0
	l0,0C638.5,324.6,638.5,327.1,637,328.6L637,328.6L637,328.6z"/>
<path class="st1" d="M729.2,328.6l-9.4,9.4c-1.5,1.5-4,1.5-5.5,0v0l0,0c-1.5-1.5-1.5-4,0-5.5l0,0l9.4-9.4c1.5-1.5,4-1.5,5.5,0l0,0
	l0,0C730.8,324.6,730.8,327.1,729.2,328.6C729.2,328.6,729.2,328.6,729.2,328.6z"/>
<path class="st1" d="M821.5,328.6l-9.4,9.4c-1.5,1.5-4,1.5-5.5,0l0,0l0,0c-1.5-1.5-1.5-4,0-5.5l0,0l9.4-9.4c1.5-1.5,4-1.5,5.5,0l0,0
	l0,0C823,324.6,823,327.1,821.5,328.6L821.5,328.6z"/>
<path class="st1" d="M637,420.2l-9.4,9.4c-1.5,1.5-4,1.5-5.5,0v0c-1.5-1.5-1.5-4,0-5.5l9.4-9.4c1.5-1.5,4-1.5,5.5,0v0
	C638.5,416.2,638.5,418.7,637,420.2z"/>
<path class="st1" d="M729.2,420.2l-9.4,9.4c-1.5,1.5-4,1.5-5.5,0v0l0,0c-1.5-1.5-1.5-4,0-5.5l0,0l9.4-9.4c1.5-1.5,4-1.5,5.5,0l0,0
	l0,0C730.8,416.2,730.8,418.7,729.2,420.2L729.2,420.2L729.2,420.2z"/>
<path class="st1" d="M821.5,420.2l-9.4,9.4c-1.5,1.5-4,1.5-5.5,0l0,0l0,0c-1.5-1.5-1.5-4,0-5.5l0,0l9.4-9.4c1.5-1.5,4-1.5,5.5,0l0,0
	l0,0C823,416.2,823,418.7,821.5,420.2L821.5,420.2z"/>
<path class="st1" d="M637,511.8l-9.4,9.4c-1.5,1.5-4,1.5-5.5,0l0,0l0,0c-1.5-1.5-1.5-4,0-5.5c0,0,0,0,0,0l9.4-9.4
	c1.5-1.5,4-1.5,5.5,0v0l0,0C638.5,507.8,638.5,510.3,637,511.8z"/>
<path class="st1" d="M729.2,511.8l-9.4,9.4c-1.5,1.5-4,1.5-5.5,0l0,0c-1.5-1.5-1.5-4,0-5.5l9.4-9.4c1.5-1.5,4-1.5,5.5,0l0,0
	C730.8,507.8,730.8,510.3,729.2,511.8z"/>
<path class="st1" d="M821.5,511.8l-9.4,9.4c-1.5,1.5-4,1.5-5.5,0l0,0c-1.5-1.5-1.5-4,0-5.5l0,0l9.4-9.4c1.5-1.5,4-1.5,5.5,0
	c0,0,0,0,0,0l0,0C823,507.8,823,510.3,821.5,511.8L821.5,511.8z"/>
<path class="st1" d="M637,603.4l-9.4,9.4c-1.5,1.5-4,1.5-5.5,0c0,0,0,0,0,0l0,0c-1.5-1.5-1.5-4,0-5.5c0,0,0,0,0,0l9.4-9.4
	c1.5-1.5,4-1.5,5.5,0v0l0,0C638.5,599.4,638.5,601.9,637,603.4L637,603.4z"/>
<path class="st1" d="M729.2,603.4l-9.4,9.4c-1.5,1.5-4,1.5-5.5,0v0l0,0c-1.5-1.5-1.5-4,0-5.5c0,0,0,0,0,0l9.4-9.4
	c1.5-1.5,4-1.5,5.5,0c0,0,0,0,0,0l0,0C730.8,599.4,730.8,601.9,729.2,603.4C729.2,603.4,729.2,603.4,729.2,603.4z"/>
<path class="st1" d="M821.5,603.4l-9.4,9.4c-1.5,1.5-4,1.5-5.5,0l0,0l0,0c-1.5-1.5-1.5-4,0-5.5l0,0l9.4-9.4c1.5-1.5,4-1.5,5.5,0
	c0,0,0,0,0,0l0,0C823,599.4,823,601.9,821.5,603.4C821.5,603.4,821.5,603.4,821.5,603.4z"/>
<path class="st1" d="M925.8,53.9l-9.4,9.4c-1.5,1.5-4,1.5-5.5,0l0,0l0,0c-1.5-1.5-1.5-4,0-5.5l0,0l9.4-9.4c1.5-1.5,4-1.5,5.5,0
	c0,0,0,0,0,0l0,0C927.3,49.8,927.3,52.3,925.8,53.9C925.8,53.9,925.8,53.9,925.8,53.9z"/>
<path class="st1" d="M1018,53.9l-9.4,9.4c-1.5,1.5-4,1.5-5.5,0v0c-1.5-1.5-1.5-4,0-5.5l9.4-9.4c1.5-1.5,4-1.5,5.5,0v0
	C1019.6,49.8,1019.6,52.3,1018,53.9z"/>
<path class="st1" d="M1110.3,53.9l-9.4,9.4c-1.5,1.5-4,1.5-5.5,0l0,0c-1.5-1.5-1.5-4,0-5.5l9.4-9.4c1.5-1.5,4-1.5,5.5,0l0,0
	C1111.8,49.8,1111.8,52.3,1110.3,53.9z"/>
<path class="st1" d="M925.8,145.5l-9.4,9.4c-1.5,1.5-4,1.5-5.5,0v0l0,0c-1.5-1.5-1.5-4,0-5.5l0,0l9.4-9.4c1.5-1.5,4-1.5,5.5,0h0l0,0
	C927.3,141.4,927.3,143.9,925.8,145.5L925.8,145.5z"/>
<path class="st1" d="M1018,145.5l-9.4,9.4c-1.5,1.5-4,1.5-5.5,0l0,0c-1.5-1.5-1.5-4,0-5.5l9.4-9.4c1.5-1.5,4-1.5,5.5,0l0,0
	C1019.6,141.4,1019.6,143.9,1018,145.5z"/>
<path class="st1" d="M1110.3,145.5l-9.4,9.4c-1.5,1.5-4,1.5-5.5,0l0,0c-1.5-1.5-1.5-4,0-5.5l9.4-9.4c1.5-1.5,4-1.5,5.5,0l0,0
	C1111.8,141.4,1111.8,143.9,1110.3,145.5z"/>
<path class="st1" d="M925.8,237l-9.4,9.4c-1.5,1.5-4,1.5-5.5,0v0l0,0c-1.5-1.5-1.5-4,0-5.5l0,0l9.4-9.4c1.5-1.5,4-1.5,5.5,0v0l0,0
	C927.3,233,927.3,235.5,925.8,237L925.8,237z"/>
<path class="st1" d="M1018,237l-9.4,9.4c-1.5,1.5-4,1.5-5.5,0l0,0c-1.5-1.5-1.5-4,0-5.5l9.4-9.4c1.5-1.5,4-1.5,5.5,0l0,0
	C1019.6,233,1019.6,235.5,1018,237z"/>
<path class="st1" d="M1110.3,237l-9.4,9.4c-1.5,1.5-4,1.5-5.5,0l0,0c-1.5-1.5-1.5-4,0-5.5l9.4-9.4c1.5-1.5,4-1.5,5.5,0l0,0
	C1111.8,233,1111.8,235.5,1110.3,237z"/>
<path class="st1" d="M925.8,328.6l-9.4,9.4c-1.5,1.5-4,1.5-5.5,0h0c-1.5-1.5-1.5-4,0-5.5l9.4-9.4c1.5-1.5,4-1.5,5.5,0l0,0
	C927.3,324.6,927.3,327.1,925.8,328.6z"/>
<path class="st1" d="M1018,328.6l-9.4,9.4c-1.5,1.5-4,1.5-5.5,0v0c-1.5-1.5-1.5-4,0-5.5l9.4-9.4c1.5-1.5,4-1.5,5.5,0v0
	C1019.6,324.6,1019.6,327.1,1018,328.6z"/>
<path class="st1" d="M1110.3,328.6l-9.4,9.4c-1.5,1.5-4,1.5-5.5,0l0,0c-1.5-1.5-1.5-4,0-5.5l9.4-9.4c1.5-1.5,4-1.5,5.5,0l0,0
	C1111.8,324.6,1111.8,327.1,1110.3,328.6L1110.3,328.6z"/>
<path class="st1" d="M925.8,420.2l-9.4,9.4c-1.5,1.5-4,1.5-5.5,0l0,0l0,0c-1.5-1.5-1.5-4,0-5.5l0,0l9.4-9.4c1.5-1.5,4-1.5,5.5,0l0,0
	l0,0C927.3,416.2,927.3,418.7,925.8,420.2L925.8,420.2z"/>
<path class="st1" d="M1018,420.2l-9.4,9.4c-1.5,1.5-4,1.5-5.5,0l0,0c-1.5-1.5-1.5-4,0-5.5l9.4-9.4c1.5-1.5,4-1.5,5.5,0v0
	C1019.6,416.2,1019.6,418.7,1018,420.2z"/>
<path class="st1" d="M1110.3,420.2l-9.4,9.4c-1.5,1.5-4,1.5-5.5,0l0,0c-1.5-1.5-1.5-4,0-5.5l9.4-9.4c1.5-1.5,4-1.5,5.5,0l0,0
	C1111.8,416.2,1111.8,418.7,1110.3,420.2z"/>
<path class="st1" d="M925.8,511.8l-9.4,9.4c-1.5,1.5-4,1.5-5.5,0l0,0c-1.5-1.5-1.5-4,0-5.5l0,0l9.4-9.4c1.5-1.5,4-1.5,5.5,0
	c0,0,0,0,0,0l0,0C927.3,507.8,927.3,510.3,925.8,511.8L925.8,511.8z"/>
<path class="st1" d="M1018,511.8l-9.4,9.4c-1.5,1.5-4,1.5-5.5,0l0,0c-1.5-1.5-1.5-4,0-5.5l9.4-9.4c1.5-1.5,4-1.5,5.5,0l0,0
	C1019.6,507.8,1019.6,510.3,1018,511.8z"/>
<path class="st1" d="M1110.3,511.8l-9.4,9.4c-1.5,1.5-4,1.5-5.5,0l0,0c-1.5-1.5-1.5-4,0-5.5l9.4-9.4c1.5-1.5,4-1.5,5.5,0l0,0
	C1111.8,507.8,1111.8,510.3,1110.3,511.8z"/>
<path class="st1" d="M925.8,603.4l-9.4,9.4c-1.5,1.5-4,1.5-5.5,0l0,0l0,0c-1.5-1.5-1.5-4,0-5.5l0,0l9.4-9.4c1.5-1.5,4-1.5,5.5,0
	c0,0,0,0,0,0l0,0C927.3,599.4,927.3,601.9,925.8,603.4C925.8,603.4,925.8,603.4,925.8,603.4z"/>
<path class="st1" d="M1018,603.4l-9.4,9.4c-1.5,1.5-4,1.5-5.5,0l0,0c-1.5-1.5-1.5-4,0-5.5l9.4-9.4c1.5-1.5,4-1.5,5.5,0l0,0
	C1019.6,599.4,1019.6,601.9,1018,603.4z"/>
<path class="st1" d="M1110.3,603.4l-9.4,9.4c-1.5,1.5-4,1.5-5.5,0l0,0c-1.5-1.5-1.5-4,0-5.5l9.4-9.4c1.5-1.5,4-1.5,5.5,0l0,0
	C1111.8,599.4,1111.8,601.9,1110.3,603.4z"/>
<path class="st1" d="M1214.6,53.9l-9.4,9.4c-1.5,1.5-4,1.5-5.5,0v0c-1.5-1.5-1.5-4,0-5.5l9.4-9.4c1.5-1.5,4-1.5,5.5,0v0
	C1216.1,49.8,1216.1,52.3,1214.6,53.9z"/>
<path class="st1" d="M1306.9,53.9l-9.4,9.4c-1.5,1.5-4,1.5-5.5,0v0c-1.5-1.5-1.5-4,0-5.5l9.4-9.4c1.5-1.5,4-1.5,5.5,0v0
	C1308.4,49.8,1308.4,52.3,1306.9,53.9z"/>
<path class="st1" d="M1399.1,53.9l-9.4,9.4c-1.5,1.5-4,1.5-5.5,0v0c-1.5-1.5-1.5-4,0-5.5l9.4-9.4c1.5-1.5,4-1.5,5.5,0v0
	C1400.6,49.8,1400.6,52.3,1399.1,53.9z"/>
<path class="st1" d="M1214.6,145.5l-9.4,9.4c-1.5,1.5-4,1.5-5.5,0l0,0c-1.5-1.5-1.5-4,0-5.5l9.4-9.4c1.5-1.5,4-1.5,5.5,0l0,0
	C1216.1,141.4,1216.1,143.9,1214.6,145.5z"/>
<path class="st1" d="M1306.9,145.5l-9.4,9.4c-1.5,1.5-4,1.5-5.5,0l0,0c-1.5-1.5-1.5-4,0-5.5l9.4-9.4c1.5-1.5,4-1.5,5.5,0l0,0
	C1308.4,141.4,1308.4,143.9,1306.9,145.5z"/>
<path class="st1" d="M1399.1,145.5l-9.4,9.4c-1.5,1.5-4,1.5-5.5,0l0,0c-1.5-1.5-1.5-4,0-5.5l9.4-9.4c1.5-1.5,4-1.5,5.5,0l0,0
	C1400.6,141.4,1400.6,143.9,1399.1,145.5z"/>
<path class="st1" d="M1214.6,237l-9.4,9.4c-1.5,1.5-4,1.5-5.5,0l0,0c-1.5-1.5-1.5-4,0-5.5l9.4-9.4c1.5-1.5,4-1.5,5.5,0l0,0
	C1216.1,233,1216.1,235.5,1214.6,237z"/>
<path class="st1" d="M1306.9,237l-9.4,9.4c-1.5,1.5-4,1.5-5.5,0l0,0c-1.5-1.5-1.5-4,0-5.5l9.4-9.4c1.5-1.5,4-1.5,5.5,0l0,0
	C1308.4,233,1308.4,235.5,1306.9,237z"/>
<path class="st1" d="M1399.1,237l-9.4,9.4c-1.5,1.5-4,1.5-5.5,0l0,0c-1.5-1.5-1.5-4,0-5.5l9.4-9.4c1.5-1.5,4-1.5,5.5,0l0,0
	C1400.6,233,1400.6,235.5,1399.1,237z"/>
<path class="st1" d="M1214.6,328.6l-9.4,9.4c-1.5,1.5-4,1.5-5.5,0v0c-1.5-1.5-1.5-4,0-5.5l9.4-9.4c1.5-1.5,4-1.5,5.5,0v0
	C1216.1,324.6,1216.1,327.1,1214.6,328.6z"/>
<path class="st1" d="M1306.9,328.6l-9.4,9.4c-1.5,1.5-4,1.5-5.5,0v0c-1.5-1.5-1.5-4,0-5.5l9.4-9.4c1.5-1.5,4-1.5,5.5,0v0
	C1308.4,324.6,1308.4,327.1,1306.9,328.6z"/>
<path class="st1" d="M1399.1,328.6l-9.4,9.4c-1.5,1.5-4,1.5-5.5,0v0c-1.5-1.5-1.5-4,0-5.5l9.4-9.4c1.5-1.5,4-1.5,5.5,0v0
	C1400.6,324.6,1400.6,327.1,1399.1,328.6z"/>
<path class="st1" d="M1214.6,420.2l-9.4,9.4c-1.5,1.5-4,1.5-5.5,0l0,0c-1.5-1.5-1.5-4,0-5.5l9.4-9.4c1.5-1.5,4-1.5,5.5,0v0
	C1216.1,416.2,1216.1,418.7,1214.6,420.2z"/>
<path class="st1" d="M1306.9,420.2l-9.4,9.4c-1.5,1.5-4,1.5-5.5,0v0c-1.5-1.5-1.5-4,0-5.5l9.4-9.4c1.5-1.5,4-1.5,5.5,0v0
	C1308.4,416.2,1308.4,418.7,1306.9,420.2z"/>
<path class="st1" d="M1399.1,420.2l-9.4,9.4c-1.5,1.5-4,1.5-5.5,0v0c-1.5-1.5-1.5-4,0-5.5l9.4-9.4c1.5-1.5,4-1.5,5.5,0v0
	C1400.6,416.2,1400.6,418.7,1399.1,420.2z"/>
<path class="st1" d="M1214.6,511.8l-9.4,9.4c-1.5,1.5-4,1.5-5.5,0l0,0c-1.5-1.5-1.5-4,0-5.5l9.4-9.4c1.5-1.5,4-1.5,5.5,0l0,0
	C1216.1,507.8,1216.1,510.3,1214.6,511.8z"/>
<path class="st1" d="M1306.9,511.8l-9.4,9.4c-1.5,1.5-4,1.5-5.5,0l0,0c-1.5-1.5-1.5-4,0-5.5l9.4-9.4c1.5-1.5,4-1.5,5.5,0l0,0
	C1308.4,507.8,1308.4,510.3,1306.9,511.8z"/>
<path class="st1" d="M1399.1,511.8l-9.4,9.4c-1.5,1.5-4,1.5-5.5,0l0,0c-1.5-1.5-1.5-4,0-5.5l9.4-9.4c1.5-1.5,4-1.5,5.5,0l0,0
	C1400.6,507.8,1400.6,510.3,1399.1,511.8z"/>
<path class="st1" d="M1214.6,603.4l-9.4,9.4c-1.5,1.5-4,1.5-5.5,0l0,0c-1.5-1.5-1.5-4,0-5.5l9.4-9.4c1.5-1.5,4-1.5,5.5,0l0,0
	C1216.1,599.4,1216.1,601.9,1214.6,603.4z"/>
<path class="st1" d="M1306.9,603.4l-9.4,9.4c-1.5,1.5-4,1.5-5.5,0l0,0c-1.5-1.5-1.5-4,0-5.5l9.4-9.4c1.5-1.5,4-1.5,5.5,0l0,0
	C1308.4,599.4,1308.4,601.9,1306.9,603.4z"/>
<path class="st1" d="M1503.4,53.9l-9.4,9.4c-1.5,1.5-4,1.5-5.5,0v0c-1.5-1.5-1.5-4,0-5.5l9.4-9.4c1.5-1.5,4-1.5,5.5,0v0
	C1505,49.8,1505,52.3,1503.4,53.9z"/>
<path class="st1" d="M1595.7,53.9l-9.4,9.4c-1.5,1.5-4,1.5-5.5,0v0c-1.5-1.5-1.5-4,0-5.5l9.4-9.4c1.5-1.5,4-1.5,5.5,0v0
	C1597.2,49.8,1597.2,52.3,1595.7,53.9z"/>
<path class="st1" d="M1687.9,53.9l-9.4,9.4c-1.5,1.5-4,1.5-5.5,0l0,0c-1.5-1.5-1.5-4,0-5.5l9.4-9.4c1.5-1.5,4-1.5,5.5,0l0,0
	C1689.4,49.8,1689.4,52.3,1687.9,53.9L1687.9,53.9z"/>
<path class="st1" d="M1503.4,145.5l-9.4,9.4c-1.5,1.5-4,1.5-5.5,0l0,0c-1.5-1.5-1.5-4,0-5.5l9.4-9.4c1.5-1.5,4-1.5,5.5,0l0,0
	C1505,141.4,1505,143.9,1503.4,145.5z"/>
<path class="st1" d="M1595.7,145.5l-9.4,9.4c-1.5,1.5-4,1.5-5.5,0l0,0c-1.5-1.5-1.5-4,0-5.5l9.4-9.4c1.5-1.5,4-1.5,5.5,0l0,0
	C1597.2,141.4,1597.2,143.9,1595.7,145.5z"/>
<path class="st1" d="M1687.9,145.5l-9.4,9.4c-1.5,1.5-4,1.5-5.5,0l0,0c-1.5-1.5-1.5-4,0-5.5l9.4-9.4c1.5-1.5,4-1.5,5.5,0l0,0
	C1689.4,141.4,1689.4,143.9,1687.9,145.5C1687.9,145.5,1687.9,145.5,1687.9,145.5z"/>
<path class="st1" d="M1503.4,237l-9.4,9.4c-1.5,1.5-4,1.5-5.5,0l0,0c-1.5-1.5-1.5-4,0-5.5l9.4-9.4c1.5-1.5,4-1.5,5.5,0l0,0
	C1505,233,1505,235.5,1503.4,237z"/>
<path class="st1" d="M1595.7,237l-9.4,9.4c-1.5,1.5-4,1.5-5.5,0l0,0c-1.5-1.5-1.5-4,0-5.5l9.4-9.4c1.5-1.5,4-1.5,5.5,0l0,0
	C1597.2,233,1597.2,235.5,1595.7,237z"/>
<path class="st1" d="M1687.9,237l-9.4,9.4c-1.5,1.5-4,1.5-5.5,0l0,0c-1.5-1.5-1.5-4,0-5.5l9.4-9.4c1.5-1.5,4-1.5,5.5,0l0,0
	C1689.4,233,1689.4,235.5,1687.9,237L1687.9,237z"/>
<path class="st1" d="M1503.4,328.6l-9.4,9.4c-1.5,1.5-4,1.5-5.5,0v0c-1.5-1.5-1.5-4,0-5.5l9.4-9.4c1.5-1.5,4-1.5,5.5,0v0
	C1505,324.6,1505,327.1,1503.4,328.6z"/>
<path class="st1" d="M1595.7,328.6l-9.4,9.4c-1.5,1.5-4,1.5-5.5,0v0c-1.5-1.5-1.5-4,0-5.5l9.4-9.4c1.5-1.5,4-1.5,5.5,0v0
	C1597.2,324.6,1597.2,327.1,1595.7,328.6z"/>
<path class="st1" d="M1687.9,328.6l-9.4,9.4c-1.5,1.5-4,1.5-5.5,0l0,0c-1.5-1.5-1.5-4,0-5.5l9.4-9.4c1.5-1.5,4-1.5,5.5,0l0,0
	C1689.4,324.6,1689.4,327.1,1687.9,328.6L1687.9,328.6z"/>
<path class="st1" d="M1503.4,420.2l-9.4,9.4c-1.5,1.5-4,1.5-5.5,0v0c-1.5-1.5-1.5-4,0-5.5l9.4-9.4c1.5-1.5,4-1.5,5.5,0l0,0
	C1505,416.2,1505,418.7,1503.4,420.2z"/>
<path class="st1" d="M1595.7,420.2l-9.4,9.4c-1.5,1.5-4,1.5-5.5,0v0c-1.5-1.5-1.5-4,0-5.5l9.4-9.4c1.5-1.5,4-1.5,5.5,0v0
	C1597.2,416.2,1597.2,418.7,1595.7,420.2z"/>
<path class="st1" d="M1687.9,420.2l-9.4,9.4c-1.5,1.5-4,1.5-5.5,0v0c-1.5-1.5-1.5-4,0-5.5l9.4-9.4c1.5-1.5,4-1.5,5.5,0v0
	C1689.4,416.2,1689.4,418.7,1687.9,420.2z"/>
<path class="st1" d="M1503.4,511.8l-9.4,9.4c-1.5,1.5-4,1.5-5.5,0l0,0c-1.5-1.5-1.5-4,0-5.5l9.4-9.4c1.5-1.5,4-1.5,5.5,0l0,0
	C1505,507.8,1505,510.3,1503.4,511.8z"/>
<path class="st1" d="M1595.7,511.8l-9.4,9.4c-1.5,1.5-4,1.5-5.5,0l0,0c-1.5-1.5-1.5-4,0-5.5l9.4-9.4c1.5-1.5,4-1.5,5.5,0l0,0
	C1597.2,507.8,1597.2,510.3,1595.7,511.8z"/>
<path class="st1" d="M1687.9,511.8l-9.4,9.4c-1.5,1.5-4,1.5-5.5,0l0,0c-1.5-1.5-1.5-4,0-5.5l9.4-9.4c1.5-1.5,4-1.5,5.5,0l0,0
	C1689.4,507.8,1689.4,510.3,1687.9,511.8L1687.9,511.8z"/>
<path class="st1" d="M1503.4,603.4l-9.4,9.4c-1.5,1.5-4,1.5-5.5,0l0,0c-1.5-1.5-1.5-4,0-5.5l9.4-9.4c1.5-1.5,4-1.5,5.5,0l0,0
	C1505,599.4,1505,601.9,1503.4,603.4z"/>
<path class="st1" d="M1595.7,603.4l-9.4,9.4c-1.5,1.5-4,1.5-5.5,0l0,0c-1.5-1.5-1.5-4,0-5.5l9.4-9.4c1.5-1.5,4-1.5,5.5,0l0,0
	C1597.2,599.4,1597.2,601.9,1595.7,603.4z"/>
<path class="st1" d="M1687.9,603.4l-9.4,9.4c-1.5,1.5-4,1.5-5.5,0l0,0c-1.5-1.5-1.5-4,0-5.5l9.4-9.4c1.5-1.5,4-1.5,5.5,0l0,0
	C1689.4,599.4,1689.4,601.9,1687.9,603.4C1687.9,603.4,1687.9,603.4,1687.9,603.4z"/>
<path class="st1" d="M1792.2,53.9l-9.4,9.4c-1.5,1.5-4,1.5-5.5,0v0c-1.5-1.5-1.5-4,0-5.5l9.4-9.4c1.5-1.5,4-1.5,5.5,0v0
	C1793.8,49.8,1793.8,52.3,1792.2,53.9z"/>
<path class="st1" d="M1884.5,53.9l-9.4,9.4c-1.5,1.5-4,1.5-5.5,0v0c-1.5-1.5-1.5-4,0-5.5l9.4-9.4c1.5-1.5,4-1.5,5.5,0v0
	C1886,49.8,1886,52.3,1884.5,53.9z"/>
<path class="st1" d="M1792.2,145.5l-9.4,9.4c-1.5,1.5-4,1.5-5.5,0l0,0c-1.5-1.5-1.5-4,0-5.5l9.4-9.4c1.5-1.5,4-1.5,5.5,0l0,0
	C1793.8,141.4,1793.8,143.9,1792.2,145.5z"/>
<path class="st1" d="M1884.5,145.5l-9.4,9.4c-1.5,1.5-4,1.5-5.5,0l0,0c-1.5-1.5-1.5-4,0-5.5l9.4-9.4c1.5-1.5,4-1.5,5.5,0l0,0
	C1886,141.4,1886,143.9,1884.5,145.5z"/>
<path class="st1" d="M1792.2,237l-9.4,9.4c-1.5,1.5-4,1.5-5.5,0l0,0c-1.5-1.5-1.5-4,0-5.5l9.4-9.4c1.5-1.5,4-1.5,5.5,0l0,0
	C1793.8,233,1793.8,235.5,1792.2,237z"/>
<path class="st1" d="M1884.5,237l-9.4,9.4c-1.5,1.5-4,1.5-5.5,0l0,0c-1.5-1.5-1.5-4,0-5.5l9.4-9.4c1.5-1.5,4-1.5,5.5,0l0,0
	C1886,233,1886,235.5,1884.5,237z"/>
<path class="st1" d="M1792.2,328.6l-9.4,9.4c-1.5,1.5-4,1.5-5.5,0l0,0c-1.5-1.5-1.5-4,0-5.5l9.4-9.4c1.5-1.5,4-1.5,5.5,0v0
	C1793.8,324.6,1793.8,327.1,1792.2,328.6z"/>
<path class="st1" d="M1884.5,328.6l-9.4,9.4c-1.5,1.5-4,1.5-5.5,0v0c-1.5-1.5-1.5-4,0-5.5l9.4-9.4c1.5-1.5,4-1.5,5.5,0v0
	C1886,324.6,1886,327.1,1884.5,328.6z"/>
<path class="st1" d="M1792.2,420.2l-9.4,9.4c-1.5,1.5-4,1.5-5.5,0v0c-1.5-1.5-1.5-4,0-5.5l9.4-9.4c1.5-1.5,4-1.5,5.5,0l0,0
	C1793.8,416.2,1793.8,418.7,1792.2,420.2z"/>
<path class="st1" d="M1884.5,420.2l-9.4,9.4c-1.5,1.5-4,1.5-5.5,0l0,0c-1.5-1.5-1.5-4,0-5.5l9.4-9.4c1.5-1.5,4-1.5,5.5,0v0
	C1886,416.2,1886,418.7,1884.5,420.2z"/>
<path class="st1" d="M1792.2,511.8l-9.4,9.4c-1.5,1.5-4,1.5-5.5,0l0,0c-1.5-1.5-1.5-4,0-5.5l9.4-9.4c1.5-1.5,4-1.5,5.5,0l0,0
	C1793.8,507.8,1793.8,510.3,1792.2,511.8z"/>
<path class="st1" d="M1884.5,511.8l-9.4,9.4c-1.5,1.5-4,1.5-5.5,0l0,0c-1.5-1.5-1.5-4,0-5.5l9.4-9.4c1.5-1.5,4-1.5,5.5,0l0,0
	C1886,507.8,1886,510.3,1884.5,511.8z"/>
<path class="st1" d="M1792.2,603.4l-9.4,9.4c-1.5,1.5-4,1.5-5.5,0l0,0c-1.5-1.5-1.5-4,0-5.5l9.4-9.4c1.5-1.5,4-1.5,5.5,0l0,0
	C1793.8,599.4,1793.8,601.9,1792.2,603.4z"/>
<path class="st1" d="M59.4,512.1l-9.4,9.4c-1.5,1.5-4,1.5-5.5,0l0,0c-1.5-1.5-1.5-4,0-5.5l9.4-9.4c1.5-1.5,4-1.5,5.5,0l0,0
	C60.9,508.1,60.9,510.6,59.4,512.1z"/>
<path class="st1" d="M151.6,512.1l-9.4,9.4c-1.5,1.5-4,1.5-5.5,0l0,0c-1.5-1.5-1.5-4,0-5.5l9.4-9.4c1.5-1.5,4-1.5,5.5,0l0,0
	C153.1,508.1,153.1,510.6,151.6,512.1z"/>
<path class="st1" d="M243.9,512.1l-9.4,9.4c-1.5,1.5-4,1.5-5.5,0l0,0c-1.5-1.5-1.5-4,0-5.5l9.4-9.4c1.5-1.5,4-1.5,5.5,0l0,0
	C245.4,508.1,245.4,510.6,243.9,512.1z"/>
<path class="st1" d="M59.4,603.7l-9.4,9.4c-1.5,1.5-4,1.5-5.5,0l0,0c-1.5-1.5-1.5-4,0-5.5l9.4-9.4c1.5-1.5,4-1.5,5.5,0l0,0
	C60.9,599.7,60.9,602.2,59.4,603.7z"/>
<path class="st1" d="M151.6,603.7l-9.4,9.4c-1.5,1.5-4,1.5-5.5,0l0,0c-1.5-1.5-1.5-4,0-5.5l9.4-9.4c1.5-1.5,4-1.5,5.5,0l0,0
	C153.1,599.7,153.1,602.2,151.6,603.7z"/>
<path class="st1" d="M243.9,603.7l-9.4,9.4c-1.5,1.5-4,1.5-5.5,0l0,0c-1.5-1.5-1.5-4,0-5.5l9.4-9.4c1.5-1.5,4-1.5,5.5,0l0,0
	C245.4,599.7,245.4,602.2,243.9,603.7z"/>
<path class="st1" d="M59.4,695.3l-9.4,9.4c-1.5,1.5-4,1.5-5.5,0l0,0c-1.5-1.5-1.5-4,0-5.5l9.4-9.4c1.5-1.5,4-1.5,5.5,0l0,0
	C60.9,691.3,60.9,693.8,59.4,695.3z"/>
<path class="st1" d="M151.6,695.3l-9.4,9.4c-1.5,1.5-4,1.5-5.5,0l0,0c-1.5-1.5-1.5-4,0-5.5l9.4-9.4c1.5-1.5,4-1.5,5.5,0l0,0
	C153.1,691.3,153.1,693.8,151.6,695.3z"/>
<path class="st1" d="M243.9,695.3l-9.4,9.4c-1.5,1.5-4,1.5-5.5,0l0,0c-1.5-1.5-1.5-4,0-5.5l9.4-9.4c1.5-1.5,4-1.5,5.5,0l0,0
	C245.4,691.3,245.4,693.8,243.9,695.3z"/>
<path class="st1" d="M59.4,786.9l-9.4,9.4c-1.5,1.5-4,1.5-5.5,0l0,0c-1.5-1.5-1.5-4,0-5.5l9.4-9.4c1.5-1.5,4-1.5,5.5,0l0,0
	C60.9,782.9,60.9,785.3,59.4,786.9z"/>
<path class="st1" d="M151.6,786.9l-9.4,9.4c-1.5,1.5-4,1.5-5.5,0l0,0c-1.5-1.5-1.5-4,0-5.5l9.4-9.4c1.5-1.5,4-1.5,5.5,0l0,0
	C153.1,782.9,153.1,785.3,151.6,786.9z"/>
<path class="st1" d="M243.9,786.9l-9.4,9.4c-1.5,1.5-4,1.5-5.5,0l0,0c-1.5-1.5-1.5-4,0-5.5l9.4-9.4c1.5-1.5,4-1.5,5.5,0l0,0
	C245.4,782.9,245.4,785.3,243.9,786.9z"/>
<path class="st1" d="M59.4,878.5l-9.4,9.4c-1.5,1.5-4,1.5-5.5,0l0,0c-1.5-1.5-1.5-4,0-5.5l9.4-9.4c1.5-1.5,4-1.5,5.5,0l0,0
	C60.9,874.4,60.9,876.9,59.4,878.5z"/>
<path class="st1" d="M151.6,878.5l-9.4,9.4c-1.5,1.5-4,1.5-5.5,0l0,0c-1.5-1.5-1.5-4,0-5.5l9.4-9.4c1.5-1.5,4-1.5,5.5,0l0,0
	C153.1,874.4,153.1,876.9,151.6,878.5z"/>
<path class="st1" d="M243.9,878.5l-9.4,9.4c-1.5,1.5-4,1.5-5.5,0l0,0c-1.5-1.5-1.5-4,0-5.5l9.4-9.4c1.5-1.5,4-1.5,5.5,0l0,0
	C245.4,874.4,245.4,876.9,243.9,878.5z"/>
<path class="st1" d="M59.4,970.1l-9.4,9.4c-1.5,1.5-4,1.5-5.5,0l0,0c-1.5-1.5-1.5-4,0-5.5l9.4-9.4c1.5-1.5,4-1.5,5.5,0l0,0
	C60.9,966,60.9,968.5,59.4,970.1z"/>
<path class="st1" d="M151.6,970.1l-9.4,9.4c-1.5,1.5-4,1.5-5.5,0l0,0c-1.5-1.5-1.5-4,0-5.5l9.4-9.4c1.5-1.5,4-1.5,5.5,0l0,0
	C153.1,966,153.1,968.5,151.6,970.1z"/>
<path class="st1" d="M243.9,970.1l-9.4,9.4c-1.5,1.5-4,1.5-5.5,0l0,0c-1.5-1.5-1.5-4,0-5.5l9.4-9.4c1.5-1.5,4-1.5,5.5,0l0,0
	C245.4,966,245.4,968.5,243.9,970.1z"/>
<path class="st1" d="M59.4,1061.6l-9.4,9.4c-1.5,1.5-4,1.5-5.5,0l0,0c-1.5-1.5-1.5-4,0-5.5l9.4-9.4c1.5-1.5,4-1.5,5.5,0l0,0
	C60.9,1057.6,60.9,1060.1,59.4,1061.6z"/>
<path class="st1" d="M151.6,1061.6l-9.4,9.4c-1.5,1.5-4,1.5-5.5,0l0,0c-1.5-1.5-1.5-4,0-5.5l9.4-9.4c1.5-1.5,4-1.5,5.5,0l0,0
	C153.1,1057.6,153.1,1060.1,151.6,1061.6z"/>
<path class="st1" d="M243.9,1061.6l-9.4,9.4c-1.5,1.5-4,1.5-5.5,0l0,0c-1.5-1.5-1.5-4,0-5.5l9.4-9.4c1.5-1.5,4-1.5,5.5,0l0,0
	C245.4,1057.6,245.4,1060.1,243.9,1061.6z"/>
<path class="st1" d="M348.2,512.1l-9.4,9.4c-1.5,1.5-4,1.5-5.5,0l0,0c-1.5-1.5-1.5-4,0-5.5l9.4-9.4c1.5-1.5,4-1.5,5.5,0l0,0
	C349.7,508.1,349.7,510.6,348.2,512.1z"/>
<path class="st1" d="M440.4,512.1l-9.4,9.4c-1.5,1.5-4,1.5-5.5,0l0,0c-1.5-1.5-1.5-4,0-5.5l9.4-9.4c1.5-1.5,4-1.5,5.5,0l0,0
	C442,508.1,442,510.6,440.4,512.1z"/>
<path class="st1" d="M532.7,512.1l-9.4,9.4c-1.5,1.5-4,1.5-5.5,0l0,0c-1.5-1.5-1.5-4,0-5.5l9.4-9.4c1.5-1.5,4-1.5,5.5,0l0,0
	C534.2,508.1,534.2,510.6,532.7,512.1z"/>
<path class="st1" d="M348.2,603.7l-9.4,9.4c-1.5,1.5-4,1.5-5.5,0l0,0c-1.5-1.5-1.5-4,0-5.5l9.4-9.4c1.5-1.5,4-1.5,5.5,0l0,0
	C349.7,599.7,349.7,602.2,348.2,603.7z"/>
<path class="st1" d="M440.4,603.7l-9.4,9.4c-1.5,1.5-4,1.5-5.5,0l0,0c-1.5-1.5-1.5-4,0-5.5l9.4-9.4c1.5-1.5,4-1.5,5.5,0l0,0
	C442,599.7,442,602.2,440.4,603.7z"/>
<path class="st1" d="M532.7,603.7l-9.4,9.4c-1.5,1.5-4,1.5-5.5,0l0,0c-1.5-1.5-1.5-4,0-5.5l9.4-9.4c1.5-1.5,4-1.5,5.5,0l0,0
	C534.2,599.7,534.2,602.2,532.7,603.7z"/>
<path class="st1" d="M348.2,695.3l-9.4,9.4c-1.5,1.5-4,1.5-5.5,0l0,0c-1.5-1.5-1.5-4,0-5.5l9.4-9.4c1.5-1.5,4-1.5,5.5,0l0,0
	C349.7,691.3,349.7,693.8,348.2,695.3z"/>
<path class="st1" d="M440.4,695.3l-9.4,9.4c-1.5,1.5-4,1.5-5.5,0l0,0c-1.5-1.5-1.5-4,0-5.5l9.4-9.4c1.5-1.5,4-1.5,5.5,0l0,0
	C442,691.3,442,693.8,440.4,695.3z"/>
<path class="st1" d="M532.7,695.3l-9.4,9.4c-1.5,1.5-4,1.5-5.5,0l0,0c-1.5-1.5-1.5-4,0-5.5l9.4-9.4c1.5-1.5,4-1.5,5.5,0l0,0
	C534.2,691.3,534.2,693.8,532.7,695.3z"/>
<path class="st1" d="M348.2,786.9l-9.4,9.4c-1.5,1.5-4,1.5-5.5,0l0,0c-1.5-1.5-1.5-4,0-5.5l9.4-9.4c1.5-1.5,4-1.5,5.5,0l0,0
	C349.7,782.9,349.7,785.3,348.2,786.9z"/>
<path class="st1" d="M440.4,786.9l-9.4,9.4c-1.5,1.5-4,1.5-5.5,0l0,0c-1.5-1.5-1.5-4,0-5.5l9.4-9.4c1.5-1.5,4-1.5,5.5,0l0,0
	C442,782.9,442,785.3,440.4,786.9z"/>
<path class="st1" d="M532.7,786.9l-9.4,9.4c-1.5,1.5-4,1.5-5.5,0l0,0c-1.5-1.5-1.5-4,0-5.5l9.4-9.4c1.5-1.5,4-1.5,5.5,0l0,0
	C534.2,782.9,534.2,785.3,532.7,786.9z"/>
<path class="st1" d="M348.2,878.5l-9.4,9.4c-1.5,1.5-4,1.5-5.5,0l0,0c-1.5-1.5-1.5-4,0-5.5l9.4-9.4c1.5-1.5,4-1.5,5.5,0l0,0
	C349.7,874.4,349.7,876.9,348.2,878.5z"/>
<path class="st1" d="M440.4,878.5l-9.4,9.4c-1.5,1.5-4,1.5-5.5,0l0,0c-1.5-1.5-1.5-4,0-5.5l9.4-9.4c1.5-1.5,4-1.5,5.5,0l0,0
	C442,874.4,442,876.9,440.4,878.5z"/>
<path class="st1" d="M532.7,878.5l-9.4,9.4c-1.5,1.5-4,1.5-5.5,0l0,0c-1.5-1.5-1.5-4,0-5.5l9.4-9.4c1.5-1.5,4-1.5,5.5,0l0,0
	C534.2,874.4,534.2,876.9,532.7,878.5z"/>
<path class="st1" d="M348.2,970.1l-9.4,9.4c-1.5,1.5-4,1.5-5.5,0l0,0c-1.5-1.5-1.5-4,0-5.5l9.4-9.4c1.5-1.5,4-1.5,5.5,0l0,0
	C349.7,966,349.7,968.5,348.2,970.1z"/>
<path class="st1" d="M440.4,970.1l-9.4,9.4c-1.5,1.5-4,1.5-5.5,0l0,0c-1.5-1.5-1.5-4,0-5.5l9.4-9.4c1.5-1.5,4-1.5,5.5,0l0,0
	C442,966,442,968.5,440.4,970.1z"/>
<path class="st1" d="M532.7,970.1l-9.4,9.4c-1.5,1.5-4,1.5-5.5,0l0,0c-1.5-1.5-1.5-4,0-5.5l9.4-9.4c1.5-1.5,4-1.5,5.5,0l0,0
	C534.2,966,534.2,968.5,532.7,970.1z"/>
<path class="st1" d="M348.2,1061.6l-9.4,9.4c-1.5,1.5-4,1.5-5.5,0l0,0c-1.5-1.5-1.5-4,0-5.5l9.4-9.4c1.5-1.5,4-1.5,5.5,0h0
	C349.7,1057.6,349.7,1060.1,348.2,1061.6z"/>
<path class="st1" d="M440.4,1061.6l-9.4,9.4c-1.5,1.5-4,1.5-5.5,0l0,0c-1.5-1.5-1.5-4,0-5.5l9.4-9.4c1.5-1.5,4-1.5,5.5,0h0
	C442,1057.6,442,1060.1,440.4,1061.6z"/>
<path class="st1" d="M532.7,1061.6l-9.4,9.4c-1.5,1.5-4,1.5-5.5,0l0,0c-1.5-1.5-1.5-4,0-5.5l9.4-9.4c1.5-1.5,4-1.5,5.5,0h0
	C534.2,1057.6,534.2,1060.1,532.7,1061.6z"/>
<path class="st1" d="M637,512.1l-9.4,9.4c-1.5,1.5-4,1.5-5.5,0l0,0l0,0c-1.5-1.5-1.5-4,0-5.5c0,0,0,0,0,0l9.4-9.4
	c1.5-1.5,4-1.5,5.5,0l0,0l0,0C638.5,508.1,638.5,510.6,637,512.1z"/>
<path class="st1" d="M729.2,512.1l-9.4,9.4c-1.5,1.5-4,1.5-5.5,0l0,0c-1.5-1.5-1.5-4,0-5.5l9.4-9.4c1.5-1.5,4-1.5,5.5,0l0,0
	C730.8,508.1,730.8,510.6,729.2,512.1z"/>
<path class="st1" d="M821.5,512.1l-9.4,9.4c-1.5,1.5-4,1.5-5.5,0l0,0c-1.5-1.5-1.5-4,0-5.5l9.4-9.4c1.5-1.5,4-1.5,5.5,0l0,0
	C823,508.1,823,510.6,821.5,512.1z"/>
<path class="st1" d="M637,603.7l-9.4,9.4c-1.5,1.5-4,1.5-5.5,0c0,0,0,0,0,0l0,0c-1.5-1.5-1.5-4,0-5.5c0,0,0,0,0,0l9.4-9.4
	c1.5-1.5,4-1.5,5.5,0h0l0,0C638.5,599.7,638.5,602.2,637,603.7L637,603.7z"/>
<path class="st1" d="M729.2,603.7l-9.4,9.4c-1.5,1.5-4,1.5-5.5,0l0,0c-1.5-1.5-1.5-4,0-5.5l9.4-9.4c1.5-1.5,4-1.5,5.5,0l0,0
	C730.8,599.7,730.8,602.2,729.2,603.7z"/>
<path class="st1" d="M821.5,603.7l-9.4,9.4c-1.5,1.5-4,1.5-5.5,0l0,0c-1.5-1.5-1.5-4,0-5.5l9.4-9.4c1.5-1.5,4-1.5,5.5,0l0,0
	C823,599.7,823,602.2,821.5,603.7z"/>
<path class="st1" d="M637,695.3l-9.4,9.4c-1.5,1.5-4,1.5-5.5,0l0,0c-1.5-1.5-1.5-4,0-5.5l9.4-9.4c1.5-1.5,4-1.5,5.5,0l0,0
	C638.5,691.3,638.5,693.8,637,695.3z"/>
<path class="st1" d="M729.2,695.3l-9.4,9.4c-1.5,1.5-4,1.5-5.5,0l0,0l0,0c-1.5-1.5-1.5-4,0-5.5l0,0l9.4-9.4c1.5-1.5,4-1.5,5.5,0
	c0,0,0,0,0,0l0,0C730.8,691.3,730.8,693.8,729.2,695.3C729.2,695.3,729.2,695.3,729.2,695.3L729.2,695.3z"/>
<path class="st1" d="M821.5,695.3l-9.4,9.4c-1.5,1.5-4,1.5-5.5,0l0,0c-1.5-1.5-1.5-4,0-5.5l9.4-9.4c1.5-1.5,4-1.5,5.5,0l0,0
	C823,691.3,823,693.8,821.5,695.3z"/>
<path class="st1" d="M637,786.9l-9.4,9.4c-1.5,1.5-4,1.5-5.5,0l0,0c-1.5-1.5-1.5-4,0-5.5l9.4-9.4c1.5-1.5,4-1.5,5.5,0l0,0
	C638.5,782.9,638.5,785.3,637,786.9z"/>
<path class="st1" d="M729.2,786.9l-9.4,9.4c-1.5,1.5-4,1.5-5.5,0l0,0l0,0c-1.5-1.5-1.5-4,0-5.5l0,0l9.4-9.4c1.5-1.5,4-1.5,5.5,0
	c0,0,0,0,0,0l0,0C730.8,782.9,730.8,785.3,729.2,786.9C729.2,786.9,729.2,786.9,729.2,786.9L729.2,786.9z"/>
<path class="st1" d="M821.5,786.9l-9.4,9.4c-1.5,1.5-4,1.5-5.5,0l0,0c-1.5-1.5-1.5-4,0-5.5l9.4-9.4c1.5-1.5,4-1.5,5.5,0l0,0
	C823,782.9,823,785.3,821.5,786.9z"/>
<path class="st1" d="M637,878.5l-9.4,9.4c-1.5,1.5-4,1.5-5.5,0l0,0c-1.5-1.5-1.5-4,0-5.5l9.4-9.4c1.5-1.5,4-1.5,5.5,0l0,0
	C638.5,874.4,638.5,876.9,637,878.5z"/>
<path class="st1" d="M729.2,878.5l-9.4,9.4c-1.5,1.5-4,1.5-5.5,0l0,0c-1.5-1.5-1.5-4,0-5.5l9.4-9.4c1.5-1.5,4-1.5,5.5,0l0,0
	C730.8,874.4,730.8,876.9,729.2,878.5z"/>
<path class="st1" d="M821.5,878.5l-9.4,9.4c-1.5,1.5-4,1.5-5.5,0l0,0l0,0c-1.5-1.5-1.5-4,0-5.5l0,0l9.4-9.4c1.5-1.5,4-1.5,5.5,0
	c0,0,0,0,0,0l0,0C823,874.4,823,876.9,821.5,878.5C821.5,878.5,821.5,878.5,821.5,878.5z"/>
<path class="st1" d="M637,970.1l-9.4,9.4c-1.5,1.5-4,1.5-5.5,0c0,0,0,0,0,0l0,0c-1.5-1.5-1.5-4,0-5.5c0,0,0,0,0,0l9.4-9.4
	c1.5-1.5,4-1.5,5.5,0h0l0,0C638.5,966,638.5,968.5,637,970.1L637,970.1z"/>
<path class="st1" d="M729.2,970.1l-9.4,9.4c-1.5,1.5-4,1.5-5.5,0l0,0c-1.5-1.5-1.5-4,0-5.5l9.4-9.4c1.5-1.5,4-1.5,5.5,0l0,0
	C730.8,966,730.8,968.5,729.2,970.1z"/>
<path class="st1" d="M821.5,970.1l-9.4,9.4c-1.5,1.5-4,1.5-5.5,0l0,0l0,0c-1.5-1.5-1.5-4,0-5.5l0,0l9.4-9.4c1.5-1.5,4-1.5,5.5,0
	c0,0,0,0,0,0l0,0C823,966,823,968.5,821.5,970.1C821.5,970.1,821.5,970.1,821.5,970.1z"/>
<path class="st1" d="M637,1061.6l-9.4,9.4c-1.5,1.5-4,1.5-5.5,0l0,0c-1.5-1.5-1.5-4,0-5.5l9.4-9.4c1.5-1.5,4-1.5,5.5,0l0,0
	C638.5,1057.6,638.5,1060.1,637,1061.6z"/>
<path class="st1" d="M729.2,1061.6l-9.4,9.4c-1.5,1.5-4,1.5-5.5,0l0,0c-1.5-1.5-1.5-4,0-5.5l9.4-9.4c1.5-1.5,4-1.5,5.5,0l0,0
	C730.8,1057.6,730.8,1060.1,729.2,1061.6z"/>
<path class="st1" d="M821.5,1061.6l-9.4,9.4c-1.5,1.5-4,1.5-5.5,0l0,0c-1.5-1.5-1.5-4,0-5.5l9.4-9.4c1.5-1.5,4-1.5,5.5,0l0,0
	C823,1057.6,823,1060.1,821.5,1061.6z"/>
<path class="st1" d="M925.8,512.1l-9.4,9.4c-1.5,1.5-4,1.5-5.5,0l0,0c-1.5-1.5-1.5-4,0-5.5l0,0l9.4-9.4c1.5-1.5,4-1.5,5.5,0
	c0,0,0,0,0,0l0,0C927.3,508.1,927.3,510.6,925.8,512.1L925.8,512.1z"/>
<path class="st1" d="M1018,512.1l-9.4,9.4c-1.5,1.5-4,1.5-5.5,0l0,0c-1.5-1.5-1.5-4,0-5.5l9.4-9.4c1.5-1.5,4-1.5,5.5,0l0,0
	C1019.6,508.1,1019.6,510.6,1018,512.1z"/>
<path class="st1" d="M1110.3,512.1l-9.4,9.4c-1.5,1.5-4,1.5-5.5,0l0,0c-1.5-1.5-1.5-4,0-5.5l9.4-9.4c1.5-1.5,4-1.5,5.5,0l0,0
	C1111.8,508.1,1111.8,510.6,1110.3,512.1z"/>
<path class="st1" d="M925.8,603.7l-9.4,9.4c-1.5,1.5-4,1.5-5.5,0l0,0l0,0c-1.5-1.5-1.5-4,0-5.5l0,0l9.4-9.4c1.5-1.5,4-1.5,5.5,0
	c0,0,0,0,0,0l0,0C927.3,599.7,927.3,602.2,925.8,603.7C925.8,603.7,925.8,603.7,925.8,603.7z"/>
<path class="st1" d="M1018,603.7l-9.4,9.4c-1.5,1.5-4,1.5-5.5,0l0,0c-1.5-1.5-1.5-4,0-5.5l9.4-9.4c1.5-1.5,4-1.5,5.5,0l0,0
	C1019.6,599.7,1019.6,602.2,1018,603.7z"/>
<path class="st1" d="M1110.3,603.7l-9.4,9.4c-1.5,1.5-4,1.5-5.5,0l0,0c-1.5-1.5-1.5-4,0-5.5l9.4-9.4c1.5-1.5,4-1.5,5.5,0l0,0
	C1111.8,599.7,1111.8,602.2,1110.3,603.7z"/>
<path class="st1" d="M925.8,695.3l-9.4,9.4c-1.5,1.5-4,1.5-5.5,0l0,0c-1.5-1.5-1.5-4,0-5.5l9.4-9.4c1.5-1.5,4-1.5,5.5,0l0,0
	C927.3,691.3,927.3,693.8,925.8,695.3z"/>
<path class="st1" d="M1018,695.3l-9.4,9.4c-1.5,1.5-4,1.5-5.5,0v0l0,0c-1.5-1.5-1.5-4,0-5.5l0,0l9.4-9.4c1.5-1.5,4-1.5,5.5,0
	c0,0,0,0,0,0l0,0C1019.6,691.3,1019.6,693.8,1018,695.3C1018,695.3,1018,695.3,1018,695.3z"/>
<path class="st1" d="M1110.3,695.3l-9.4,9.4c-1.5,1.5-4,1.5-5.5,0l0,0c-1.5-1.5-1.5-4,0-5.5l9.4-9.4c1.5-1.5,4-1.5,5.5,0l0,0
	C1111.8,691.3,1111.8,693.8,1110.3,695.3z"/>
<path class="st1" d="M925.8,786.9l-9.4,9.4c-1.5,1.5-4,1.5-5.5,0l0,0c-1.5-1.5-1.5-4,0-5.5l9.4-9.4c1.5-1.5,4-1.5,5.5,0l0,0
	C927.3,782.9,927.3,785.3,925.8,786.9z"/>
<path class="st1" d="M1018,786.9l-9.4,9.4c-1.5,1.5-4,1.5-5.5,0l0,0l0,0c-1.5-1.5-1.5-4,0-5.5l0,0l9.4-9.4c1.5-1.5,4-1.5,5.5,0
	c0,0,0,0,0,0l0,0C1019.6,782.9,1019.6,785.3,1018,786.9C1018,786.9,1018,786.9,1018,786.9z"/>
<path class="st1" d="M1110.3,786.9l-9.4,9.4c-1.5,1.5-4,1.5-5.5,0l0,0c-1.5-1.5-1.5-4,0-5.5l9.4-9.4c1.5-1.5,4-1.5,5.5,0l0,0
	C1111.8,782.9,1111.8,785.3,1110.3,786.9z"/>
<path class="st1" d="M925.8,878.5l-9.4,9.4c-1.5,1.5-4,1.5-5.5,0l0,0c-1.5-1.5-1.5-4,0-5.5l0,0l9.4-9.4c1.5-1.5,4-1.5,5.5,0
	c0,0,0,0,0,0l0,0C927.3,874.4,927.3,876.9,925.8,878.5C925.8,878.5,925.8,878.5,925.8,878.5L925.8,878.5z"/>
<path class="st1" d="M1018,878.5l-9.4,9.4c-1.5,1.5-4,1.5-5.5,0l0,0c-1.5-1.5-1.5-4,0-5.5l9.4-9.4c1.5-1.5,4-1.5,5.5,0l0,0
	C1019.6,874.4,1019.6,876.9,1018,878.5z"/>
<path class="st1" d="M1110.3,878.5l-9.4,9.4c-1.5,1.5-4,1.5-5.5,0l0,0c-1.5-1.5-1.5-4,0-5.5l9.4-9.4c1.5-1.5,4-1.5,5.5,0l0,0
	C1111.8,874.4,1111.8,876.9,1110.3,878.5z"/>
<path class="st1" d="M925.8,970.1l-9.4,9.4c-1.5,1.5-4,1.5-5.5,0l0,0l0,0c-1.5-1.5-1.5-4,0-5.5l0,0l9.4-9.4c1.5-1.5,4-1.5,5.5,0
	c0,0,0,0,0,0l0,0C927.3,966,927.3,968.5,925.8,970.1C925.8,970.1,925.8,970.1,925.8,970.1z"/>
<path class="st1" d="M1018,970.1l-9.4,9.4c-1.5,1.5-4,1.5-5.5,0l0,0c-1.5-1.5-1.5-4,0-5.5l9.4-9.4c1.5-1.5,4-1.5,5.5,0l0,0
	C1019.6,966,1019.6,968.5,1018,970.1z"/>
<path class="st1" d="M1110.3,970.1l-9.4,9.4c-1.5,1.5-4,1.5-5.5,0l0,0c-1.5-1.5-1.5-4,0-5.5l9.4-9.4c1.5-1.5,4-1.5,5.5,0l0,0
	C1111.8,966,1111.8,968.5,1110.3,970.1z"/>
<path class="st1" d="M925.8,1061.6l-9.4,9.4c-1.5,1.5-4,1.5-5.5,0l0,0c-1.5-1.5-1.5-4,0-5.5l9.4-9.4c1.5-1.5,4-1.5,5.5,0l0,0
	C927.3,1057.6,927.3,1060.1,925.8,1061.6z"/>
<path class="st1" d="M1018,1061.6l-9.4,9.4c-1.5,1.5-4,1.5-5.5,0h0c-1.5-1.5-1.5-4,0-5.5l9.4-9.4c1.5-1.5,4-1.5,5.5,0l0,0
	C1019.6,1057.6,1019.6,1060.1,1018,1061.6z"/>
<path class="st1" d="M1110.3,1061.6l-9.4,9.4c-1.5,1.5-4,1.5-5.5,0l0,0c-1.5-1.5-1.5-4,0-5.5l9.4-9.4c1.5-1.5,4-1.5,5.5,0l0,0
	C1111.8,1057.6,1111.8,1060.1,1110.3,1061.6z"/>
<path class="st1" d="M1214.6,512.1l-9.4,9.4c-1.5,1.5-4,1.5-5.5,0l0,0c-1.5-1.5-1.5-4,0-5.5l9.4-9.4c1.5-1.5,4-1.5,5.5,0l0,0
	C1216.1,508.1,1216.1,510.6,1214.6,512.1z"/>
<path class="st1" d="M1306.9,512.1l-9.4,9.4c-1.5,1.5-4,1.5-5.5,0l0,0c-1.5-1.5-1.5-4,0-5.5l9.4-9.4c1.5-1.5,4-1.5,5.5,0l0,0
	C1308.4,508.1,1308.4,510.6,1306.9,512.1z"/>
<path class="st1" d="M1399.1,512.1l-9.4,9.4c-1.5,1.5-4,1.5-5.5,0l0,0c-1.5-1.5-1.5-4,0-5.5l9.4-9.4c1.5-1.5,4-1.5,5.5,0l0,0
	C1400.6,508.1,1400.6,510.6,1399.1,512.1z"/>
<path class="st1" d="M1214.6,603.7l-9.4,9.4c-1.5,1.5-4,1.5-5.5,0l0,0c-1.5-1.5-1.5-4,0-5.5l9.4-9.4c1.5-1.5,4-1.5,5.5,0l0,0
	C1216.1,599.7,1216.1,602.2,1214.6,603.7z"/>
<path class="st1" d="M1306.9,603.7l-9.4,9.4c-1.5,1.5-4,1.5-5.5,0l0,0c-1.5-1.5-1.5-4,0-5.5l9.4-9.4c1.5-1.5,4-1.5,5.5,0l0,0
	C1308.4,599.7,1308.4,602.2,1306.9,603.7z"/>
<path class="st1" d="M1399.1,603.7l-9.4,9.4c-1.5,1.5-4,1.5-5.5,0l0,0c-1.5-1.5-1.5-4,0-5.5l9.4-9.4c1.5-1.5,4-1.5,5.5,0l0,0
	C1400.6,599.7,1400.6,602.2,1399.1,603.7z"/>
<path class="st1" d="M1214.6,695.3l-9.4,9.4c-1.5,1.5-4,1.5-5.5,0l0,0c-1.5-1.5-1.5-4,0-5.5l9.4-9.4c1.5-1.5,4-1.5,5.5,0l0,0
	C1216.1,691.3,1216.1,693.8,1214.6,695.3z"/>
<path class="st1" d="M1306.9,695.3l-9.4,9.4c-1.5,1.5-4,1.5-5.5,0l0,0c-1.5-1.5-1.5-4,0-5.5l9.4-9.4c1.5-1.5,4-1.5,5.5,0l0,0
	C1308.4,691.3,1308.4,693.8,1306.9,695.3z"/>
<path class="st1" d="M1399.1,695.3l-9.4,9.4c-1.5,1.5-4,1.5-5.5,0l0,0c-1.5-1.5-1.5-4,0-5.5l9.4-9.4c1.5-1.5,4-1.5,5.5,0l0,0
	C1400.6,691.3,1400.6,693.8,1399.1,695.3z"/>
<path class="st1" d="M1214.6,786.9l-9.4,9.4c-1.5,1.5-4,1.5-5.5,0l0,0c-1.5-1.5-1.5-4,0-5.5l9.4-9.4c1.5-1.5,4-1.5,5.5,0l0,0
	C1216.1,782.9,1216.1,785.3,1214.6,786.9z"/>
<path class="st1" d="M1306.9,786.9l-9.4,9.4c-1.5,1.5-4,1.5-5.5,0l0,0c-1.5-1.5-1.5-4,0-5.5l9.4-9.4c1.5-1.5,4-1.5,5.5,0l0,0
	C1308.4,782.9,1308.4,785.3,1306.9,786.9z"/>
<path class="st1" d="M1399.1,786.9l-9.4,9.4c-1.5,1.5-4,1.5-5.5,0l0,0c-1.5-1.5-1.5-4,0-5.5l9.4-9.4c1.5-1.5,4-1.5,5.5,0l0,0
	C1400.6,782.9,1400.6,785.3,1399.1,786.9z"/>
<path class="st1" d="M1214.6,878.5l-9.4,9.4c-1.5,1.5-4,1.5-5.5,0l0,0c-1.5-1.5-1.5-4,0-5.5l9.4-9.4c1.5-1.5,4-1.5,5.5,0l0,0
	C1216.1,874.4,1216.1,876.9,1214.6,878.5z"/>
<path class="st1" d="M1306.9,878.5l-9.4,9.4c-1.5,1.5-4,1.5-5.5,0l0,0c-1.5-1.5-1.5-4,0-5.5l9.4-9.4c1.5-1.5,4-1.5,5.5,0l0,0
	C1308.4,874.4,1308.4,876.9,1306.9,878.5z"/>
<path class="st1" d="M1399.1,878.5l-9.4,9.4c-1.5,1.5-4,1.5-5.5,0l0,0c-1.5-1.5-1.5-4,0-5.5l9.4-9.4c1.5-1.5,4-1.5,5.5,0l0,0
	C1400.6,874.4,1400.6,876.9,1399.1,878.5z"/>
<path class="st1" d="M1214.6,970.1l-9.4,9.4c-1.5,1.5-4,1.5-5.5,0l0,0c-1.5-1.5-1.5-4,0-5.5l9.4-9.4c1.5-1.5,4-1.5,5.5,0l0,0
	C1216.1,966,1216.1,968.5,1214.6,970.1z"/>
<path class="st1" d="M1306.9,970.1l-9.4,9.4c-1.5,1.5-4,1.5-5.5,0l0,0c-1.5-1.5-1.5-4,0-5.5l9.4-9.4c1.5-1.5,4-1.5,5.5,0l0,0
	C1308.4,966,1308.4,968.5,1306.9,970.1z"/>
<path class="st1" d="M1399.1,970.1l-9.4,9.4c-1.5,1.5-4,1.5-5.5,0l0,0c-1.5-1.5-1.5-4,0-5.5l9.4-9.4c1.5-1.5,4-1.5,5.5,0l0,0
	C1400.6,966,1400.6,968.5,1399.1,970.1z"/>
<path class="st1" d="M1214.6,1061.6l-9.4,9.4c-1.5,1.5-4,1.5-5.5,0l0,0c-1.5-1.5-1.5-4,0-5.5l9.4-9.4c1.5-1.5,4-1.5,5.5,0l0,0
	C1216.1,1057.6,1216.1,1060.1,1214.6,1061.6z"/>
<path class="st1" d="M1306.9,1061.6l-9.4,9.4c-1.5,1.5-4,1.5-5.5,0l0,0c-1.5-1.5-1.5-4,0-5.5l9.4-9.4c1.5-1.5,4-1.5,5.5,0h0
	C1308.4,1057.6,1308.4,1060.1,1306.9,1061.6z"/>
<path class="st1" d="M1503.4,512.1l-9.4,9.4c-1.5,1.5-4,1.5-5.5,0l0,0c-1.5-1.5-1.5-4,0-5.5l9.4-9.4c1.5-1.5,4-1.5,5.5,0l0,0
	C1505,508.1,1505,510.6,1503.4,512.1z"/>
<path class="st1" d="M1595.7,512.1l-9.4,9.4c-1.5,1.5-4,1.5-5.5,0l0,0c-1.5-1.5-1.5-4,0-5.5l9.4-9.4c1.5-1.5,4-1.5,5.5,0l0,0
	C1597.2,508.1,1597.2,510.6,1595.7,512.1z"/>
<path class="st1" d="M1687.9,512.1l-9.4,9.4c-1.5,1.5-4,1.5-5.5,0l0,0c-1.5-1.5-1.5-4,0-5.5l9.4-9.4c1.5-1.5,4-1.5,5.5,0l0,0
	C1689.4,508.1,1689.4,510.6,1687.9,512.1L1687.9,512.1z"/>
<path class="st1" d="M1503.4,603.7l-9.4,9.4c-1.5,1.5-4,1.5-5.5,0l0,0c-1.5-1.5-1.5-4,0-5.5l9.4-9.4c1.5-1.5,4-1.5,5.5,0l0,0
	C1505,599.7,1505,602.2,1503.4,603.7z"/>
<path class="st1" d="M1595.7,603.7l-9.4,9.4c-1.5,1.5-4,1.5-5.5,0l0,0c-1.5-1.5-1.5-4,0-5.5l9.4-9.4c1.5-1.5,4-1.5,5.5,0l0,0
	C1597.2,599.7,1597.2,602.2,1595.7,603.7z"/>
<path class="st1" d="M1687.9,603.7l-9.4,9.4c-1.5,1.5-4,1.5-5.5,0l0,0c-1.5-1.5-1.5-4,0-5.5l9.4-9.4c1.5-1.5,4-1.5,5.5,0l0,0
	C1689.4,599.7,1689.4,602.2,1687.9,603.7L1687.9,603.7z"/>
<path class="st1" d="M1503.4,695.3l-9.4,9.4c-1.5,1.5-4,1.5-5.5,0l0,0c-1.5-1.5-1.5-4,0-5.5l9.4-9.4c1.5-1.5,4-1.5,5.5,0l0,0
	C1505,691.3,1505,693.8,1503.4,695.3z"/>
<path class="st1" d="M1595.7,695.3l-9.4,9.4c-1.5,1.5-4,1.5-5.5,0l0,0c-1.5-1.5-1.5-4,0-5.5l9.4-9.4c1.5-1.5,4-1.5,5.5,0l0,0
	C1597.2,691.3,1597.2,693.8,1595.7,695.3z"/>
<path class="st1" d="M1687.9,695.3l-9.4,9.4c-1.5,1.5-4,1.5-5.5,0l0,0c-1.5-1.5-1.5-4,0-5.5l9.4-9.4c1.5-1.5,4-1.5,5.5,0l0,0
	C1689.4,691.3,1689.4,693.8,1687.9,695.3z"/>
<path class="st1" d="M1503.4,786.9l-9.4,9.4c-1.5,1.5-4,1.5-5.5,0l0,0c-1.5-1.5-1.5-4,0-5.5l9.4-9.4c1.5-1.5,4-1.5,5.5,0l0,0
	C1505,782.9,1505,785.3,1503.4,786.9z"/>
<path class="st1" d="M1595.7,786.9l-9.4,9.4c-1.5,1.5-4,1.5-5.5,0l0,0c-1.5-1.5-1.5-4,0-5.5l9.4-9.4c1.5-1.5,4-1.5,5.5,0l0,0
	C1597.2,782.9,1597.2,785.3,1595.7,786.9z"/>
<path class="st1" d="M1687.9,786.9l-9.4,9.4c-1.5,1.5-4,1.5-5.5,0l0,0c-1.5-1.5-1.5-4,0-5.5l9.4-9.4c1.5-1.5,4-1.5,5.5,0l0,0
	C1689.4,782.9,1689.4,785.3,1687.9,786.9z"/>
<path class="st1" d="M1503.4,878.5l-9.4,9.4c-1.5,1.5-4,1.5-5.5,0l0,0c-1.5-1.5-1.5-4,0-5.5l9.4-9.4c1.5-1.5,4-1.5,5.5,0l0,0
	C1505,874.4,1505,876.9,1503.4,878.5z"/>
<path class="st1" d="M1595.7,878.5l-9.4,9.4c-1.5,1.5-4,1.5-5.5,0l0,0c-1.5-1.5-1.5-4,0-5.5l9.4-9.4c1.5-1.5,4-1.5,5.5,0l0,0
	C1597.2,874.4,1597.2,876.9,1595.7,878.5z"/>
<path class="st1" d="M1687.9,878.5l-9.4,9.4c-1.5,1.5-4,1.5-5.5,0l0,0c-1.5-1.5-1.5-4,0-5.5l9.4-9.4c1.5-1.5,4-1.5,5.5,0l0,0
	C1689.4,874.4,1689.4,876.9,1687.9,878.5z"/>
<path class="st1" d="M1503.4,970.1l-9.4,9.4c-1.5,1.5-4,1.5-5.5,0l0,0c-1.5-1.5-1.5-4,0-5.5l9.4-9.4c1.5-1.5,4-1.5,5.5,0l0,0
	C1505,966,1505,968.5,1503.4,970.1z"/>
<path class="st1" d="M1595.7,970.1l-9.4,9.4c-1.5,1.5-4,1.5-5.5,0l0,0c-1.5-1.5-1.5-4,0-5.5l9.4-9.4c1.5-1.5,4-1.5,5.5,0l0,0
	C1597.2,966,1597.2,968.5,1595.7,970.1z"/>
<path class="st1" d="M1687.9,970.1l-9.4,9.4c-1.5,1.5-4,1.5-5.5,0l0,0c-1.5-1.5-1.5-4,0-5.5l9.4-9.4c1.5-1.5,4-1.5,5.5,0l0,0
	C1689.4,966,1689.4,968.5,1687.9,970.1z"/>
<path class="st1" d="M1503.4,1061.6l-9.4,9.4c-1.5,1.5-4,1.5-5.5,0h0c-1.5-1.5-1.5-4,0-5.5l9.4-9.4c1.5-1.5,4-1.5,5.5,0l0,0
	C1505,1057.6,1505,1060.1,1503.4,1061.6z"/>
<path class="st1" d="M1595.7,1061.6l-9.4,9.4c-1.5,1.5-4,1.5-5.5,0l0,0c-1.5-1.5-1.5-4,0-5.5l9.4-9.4c1.5-1.5,4-1.5,5.5,0l0,0
	C1597.2,1057.6,1597.2,1060.1,1595.7,1061.6z"/>
<path class="st1" d="M1687.9,1061.6l-9.4,9.4c-1.5,1.5-4,1.5-5.5,0l0,0c-1.5-1.5-1.5-4,0-5.5l9.4-9.4c1.5-1.5,4-1.5,5.5,0l0,0
	C1689.4,1057.6,1689.4,1060.1,1687.9,1061.6z"/>
<path class="st1" d="M1792.2,512.1l-9.4,9.4c-1.5,1.5-4,1.5-5.5,0l0,0c-1.5-1.5-1.5-4,0-5.5l9.4-9.4c1.5-1.5,4-1.5,5.5,0l0,0
	C1793.8,508.1,1793.8,510.6,1792.2,512.1z"/>
<path class="st1" d="M1884.5,512.1l-9.4,9.4c-1.5,1.5-4,1.5-5.5,0l0,0c-1.5-1.5-1.5-4,0-5.5l9.4-9.4c1.5-1.5,4-1.5,5.5,0l0,0
	C1886,508.1,1886,510.6,1884.5,512.1z"/>
<path class="st1" d="M1792.2,603.7l-9.4,9.4c-1.5,1.5-4,1.5-5.5,0l0,0c-1.5-1.5-1.5-4,0-5.5l9.4-9.4c1.5-1.5,4-1.5,5.5,0l0,0
	C1793.8,599.7,1793.8,602.2,1792.2,603.7z"/>
<path class="st1" d="M1884.5,603.7l-9.4,9.4c-1.5,1.5-4,1.5-5.5,0l0,0c-1.5-1.5-1.5-4,0-5.5l9.4-9.4c1.5-1.5,4-1.5,5.5,0l0,0
	C1886,599.7,1886,602.2,1884.5,603.7z"/>
<path class="st1" d="M1792.2,695.3l-9.4,9.4c-1.5,1.5-4,1.5-5.5,0l0,0c-1.5-1.5-1.5-4,0-5.5l9.4-9.4c1.5-1.5,4-1.5,5.5,0l0,0
	C1793.8,691.3,1793.8,693.8,1792.2,695.3z"/>
<path class="st1" d="M1884.5,695.3l-9.4,9.4c-1.5,1.5-4,1.5-5.5,0l0,0c-1.5-1.5-1.5-4,0-5.5l9.4-9.4c1.5-1.5,4-1.5,5.5,0l0,0
	C1886,691.3,1886,693.8,1884.5,695.3z"/>
<path class="st1" d="M1792.2,786.9l-9.4,9.4c-1.5,1.5-4,1.5-5.5,0l0,0c-1.5-1.5-1.5-4,0-5.5l9.4-9.4c1.5-1.5,4-1.5,5.5,0l0,0
	C1793.8,782.9,1793.8,785.3,1792.2,786.9z"/>
<path class="st1" d="M1884.5,786.9l-9.4,9.4c-1.5,1.5-4,1.5-5.5,0l0,0c-1.5-1.5-1.5-4,0-5.5l9.4-9.4c1.5-1.5,4-1.5,5.5,0l0,0
	C1886,782.9,1886,785.3,1884.5,786.9z"/>
<path class="st1" d="M1792.2,878.5l-9.4,9.4c-1.5,1.5-4,1.5-5.5,0l0,0c-1.5-1.5-1.5-4,0-5.5l9.4-9.4c1.5-1.5,4-1.5,5.5,0l0,0
	C1793.8,874.4,1793.8,876.9,1792.2,878.5z"/>
<path class="st1" d="M1884.5,878.5l-9.4,9.4c-1.5,1.5-4,1.5-5.5,0l0,0c-1.5-1.5-1.5-4,0-5.5l9.4-9.4c1.5-1.5,4-1.5,5.5,0l0,0
	C1886,874.4,1886,876.9,1884.5,878.5z"/>
<path class="st1" d="M1792.2,970.1l-9.4,9.4c-1.5,1.5-4,1.5-5.5,0l0,0c-1.5-1.5-1.5-4,0-5.5l9.4-9.4c1.5-1.5,4-1.5,5.5,0l0,0
	C1793.8,966,1793.8,968.5,1792.2,970.1z"/>
<path class="st1" d="M1884.5,970.1l-9.4,9.4c-1.5,1.5-4,1.5-5.5,0l0,0c-1.5-1.5-1.5-4,0-5.5l9.4-9.4c1.5-1.5,4-1.5,5.5,0l0,0
	C1886,966,1886,968.5,1884.5,970.1z"/>
<path class="st1" d="M1792.2,1061.6l-9.4,9.4c-1.5,1.5-4,1.5-5.5,0h0c-1.5-1.5-1.5-4,0-5.5l9.4-9.4c1.5-1.5,4-1.5,5.5,0v0
	C1793.8,1057.6,1793.8,1060.1,1792.2,1061.6z"/>
</svg>
